<?xml version="1.0" encoding="UTF-8" standalone="no"?>
<!-- Created with Inkscape (http://www.inkscape.org/) -->

<svg
   xmlns:dc="http://purl.org/dc/elements/1.1/"
   xmlns:cc="http://creativecommons.org/ns#"
   xmlns:rdf="http://www.w3.org/1999/02/22-rdf-syntax-ns#"
   xmlns:svg="http://www.w3.org/2000/svg"
   xmlns="http://www.w3.org/2000/svg"
   xmlns:xlink="http://www.w3.org/1999/xlink"
   xmlns:sodipodi="http://sodipodi.sourceforge.net/DTD/sodipodi-0.dtd"
   xmlns:inkscape="http://www.inkscape.org/namespaces/inkscape"
   width="48"
   height="48"
   id="svg4230"
   version="1.1"
   inkscape:version="0.92.2 (5c3e80d, 2017-08-06)"
   sodipodi:docname="firefox.svg">
  <defs
     id="defs4232">
    <linearGradient
       id="linearGradient3860">
      <stop
         style="stop-color:#03b4e2;stop-opacity:1;"
         offset="0"
         id="stop3862" />
      <stop
         style="stop-color:#e74d89;stop-opacity:1;"
         offset="1"
         id="stop3864" />
    </linearGradient>
    <linearGradient
       id="linearGradient4524">
      <stop
         style="stop-color:#d7d7d7;stop-opacity:1;"
         offset="0"
         id="stop4526" />
      <stop
         style="stop-color:#fcfcfc;stop-opacity:1;"
         offset="1"
         id="stop4528" />
    </linearGradient>
    <linearGradient
       id="linearGradient4512">
      <stop
         style="stop-color:#d9d2d1;stop-opacity:1;"
         offset="0"
         id="stop4514" />
      <stop
         style="stop-color:#fefcfc;stop-opacity:1;"
         offset="1"
         id="stop4516" />
    </linearGradient>
    <linearGradient
       id="linearGradient4243">
      <stop
         style="stop-color:#000000;stop-opacity:1;"
         offset="0"
         id="stop4245" />
      <stop
         style="stop-color:#000000;stop-opacity:0;"
         offset="1"
         id="stop4247" />
    </linearGradient>
    <linearGradient
       id="linearGradient4216">
      <stop
         style="stop-color:#a0c4e6;stop-opacity:1;"
         offset="0"
         id="stop4218" />
      <stop
         style="stop-color:#d0e2f1;stop-opacity:1;"
         offset="1"
         id="stop4220" />
    </linearGradient>
    <linearGradient
       id="linearGradient4208">
      <stop
         style="stop-color:#70a3d6;stop-opacity:1;"
         offset="0"
         id="stop4210" />
      <stop
         style="stop-color:#88b6e1;stop-opacity:1;"
         offset="1"
         id="stop4212" />
    </linearGradient>
    <linearGradient
       id="linearGradient4200">
      <stop
         style="stop-color:#427dbe;stop-opacity:1;"
         offset="0"
         id="stop4202" />
      <stop
         style="stop-color:#739bd1;stop-opacity:1;"
         offset="1"
         id="stop4204" />
    </linearGradient>
    <linearGradient
       id="linearGradient4192">
      <stop
         style="stop-color:#4970a4;stop-opacity:1;"
         offset="0"
         id="stop4194" />
      <stop
         style="stop-color:#6090c0;stop-opacity:1;"
         offset="1"
         id="stop4196" />
    </linearGradient>
    <radialGradient
       inkscape:collect="always"
       xlink:href="#linearGradient3688-166-749-5-9-1"
       id="radialGradient4351"
       gradientUnits="userSpaceOnUse"
       gradientTransform="matrix(2.3201711,0,0,0.39999996,28.617836,28.600002)"
       cx="4.9929786"
       cy="43.5"
       fx="4.9929786"
       fy="43.5"
       r="2.5" />
    <linearGradient
       id="linearGradient3688-166-749-5-9-1">
      <stop
         id="stop2883-0-2-9"
         style="stop-color:#181818;stop-opacity:1"
         offset="0" />
      <stop
         id="stop2885-5-3-8"
         style="stop-color:#181818;stop-opacity:0"
         offset="1" />
    </linearGradient>
    <linearGradient
       id="linearGradient3688-464-309-8-9-4">
      <stop
         id="stop2889-9-9-1"
         style="stop-color:#181818;stop-opacity:1"
         offset="0" />
      <stop
         id="stop2891-4-2-9"
         style="stop-color:#181818;stop-opacity:0"
         offset="1" />
    </linearGradient>
    <linearGradient
       id="linearGradient3702-501-757-0-4-0">
      <stop
         id="stop2895-0-2-1"
         style="stop-color:#181818;stop-opacity:0"
         offset="0" />
      <stop
         id="stop2897-2-8-2"
         style="stop-color:#181818;stop-opacity:1"
         offset="0.5" />
      <stop
         id="stop2899-6-1-6"
         style="stop-color:#181818;stop-opacity:0"
         offset="1" />
    </linearGradient>
    <linearGradient
       id="linearGradient3811-3">
      <stop
         style="stop-color:#000000;stop-opacity:1;"
         offset="0"
         id="stop3813-0" />
      <stop
         style="stop-color:#000000;stop-opacity:0;"
         offset="1"
         id="stop3815-0" />
    </linearGradient>
    <clipPath
       id="clipPath-887332295">
      <g
         id="g3945"
         transform="translate(0,-1004.3622)">
        <rect
           id="rect3947"
           fill="#1890d0"
           width="46"
           height="46"
           x="1"
           y="1005.36"
           rx="4" />
      </g>
    </clipPath>
    <clipPath
       id="clipPath-867792831">
      <g
         id="g3940"
         transform="translate(0,-1004.3622)">
        <rect
           id="rect3942"
           fill="#1890d0"
           width="46"
           height="46"
           x="1"
           y="1005.36"
           rx="4" />
      </g>
    </clipPath>
    <linearGradient
       gradientTransform="translate(-47.997785,0.00221467)"
       gradientUnits="userSpaceOnUse"
       x2="47"
       x1="1"
       id="linearGradient3764">
      <stop
         id="stop3935"
         stop-opacity="1"
         stop-color="#e4e4e4" />
      <stop
         id="stop3937"
         stop-opacity="1"
         stop-color="#eee"
         offset="1" />
    </linearGradient>
    <radialGradient
       inkscape:collect="always"
       xlink:href="#linearGradient4243"
       id="radialGradient4274"
       gradientUnits="userSpaceOnUse"
       gradientTransform="matrix(1.0434782,0,0,0.1956518,-1.0434797,35.184809)"
       cx="24.000001"
       cy="42.499991"
       fx="24.000001"
       fy="42.499991"
       r="23" />
    <linearGradient
       inkscape:collect="always"
       xlink:href="#linearGradient4512"
       id="linearGradient4554"
       gradientUnits="userSpaceOnUse"
       x1="12.5"
       y1="28.000042"
       x2="12.5"
       y2="17.000042" />
    <linearGradient
       inkscape:collect="always"
       xlink:href="#linearGradient3860"
       id="linearGradient3866"
       x1="8"
       y1="1025.9097"
       x2="38.58788"
       y2="1025.9097"
       gradientUnits="userSpaceOnUse" />
    <linearGradient
       inkscape:collect="always"
       xlink:href="#linearGradient3860"
       id="linearGradient3868"
       x1="32"
       y1="1040.3622"
       x2="32.735934"
       y2="1026.7472"
       gradientUnits="userSpaceOnUse" />
    <linearGradient
       inkscape:collect="always"
       xlink:href="#linearGradient3860"
       id="linearGradient3870"
       x1="14.860004"
       y1="1026.3271"
       x2="32.422594"
       y2="1026.3271"
       gradientUnits="userSpaceOnUse" />
    <radialGradient
       inkscape:collect="always"
       xlink:href="#SVGID_45_-1-8"
       id="radialGradient6071"
       gradientUnits="userSpaceOnUse"
       gradientTransform="matrix(0.11540893,0.06308544,-0.0421382,0.07709253,5.2916115,-1.3610858)"
       cx="75.470001"
       cy="84.059998"
       r="43.93" />
    <radialGradient
       id="SVGID_45_-1-8"
       cx="75.470001"
       cy="84.059998"
       r="43.93"
       gradientTransform="matrix(0.9569,0.2903,-0.1939,0.6392,19.5463,8.4187)"
       gradientUnits="userSpaceOnUse">
      <stop
         offset="0.487"
         stop-color="#e57c27"
         stop-opacity="0"
         id="stop393-2-4" />
      <stop
         offset="0.853"
         stop-color="#f0be1b"
         id="stop395-9-0" />
    </radialGradient>
    <radialGradient
       inkscape:collect="always"
       xlink:href="#SVGID_37_-6-2"
       id="radialGradient6074"
       gradientUnits="userSpaceOnUse"
       gradientTransform="matrix(0.1314292,0.005005,0.0037913,-0.09964864,-1.0176986,26.385787)"
       cx="127.8"
       cy="34.34"
       r="87.309998" />
    <radialGradient
       id="SVGID_37_-6-2"
       cx="127.8"
       cy="34.34"
       r="87.309998"
       gradientTransform="matrix(0.9863,-0.1647,-0.1249,-0.7478,15.643,224.3614)"
       gradientUnits="userSpaceOnUse">
      <stop
         offset="0.5"
         stop-color="#e05a27"
         stop-opacity="0"
         id="stop295-81-2" />
      <stop
         offset="0.656"
         stop-color="#dd5a26"
         id="stop297-69-9" />
      <stop
         offset="0.815"
         stop-color="#b02228"
         id="stop299-8-5" />
    </radialGradient>
    <radialGradient
       inkscape:collect="always"
       xlink:href="#SVGID_35_-3-2"
       id="radialGradient6080"
       gradientUnits="userSpaceOnUse"
       gradientTransform="matrix(0.1288154,0.02658511,0.02240593,-0.10856562,-6.5288817,28.127139)"
       cx="175"
       cy="30.26"
       r="95.220001" />
    <radialGradient
       id="SVGID_35_-3-2"
       cx="175"
       cy="30.26"
       r="95.220001"
       gradientTransform="matrix(1,0,0,-0.8428,-22.5352,246.0269)"
       gradientUnits="userSpaceOnUse">
      <stop
         offset="0.5"
         stop-color="#e05a27"
         stop-opacity="0"
         id="stop281-7-4" />
      <stop
         offset="0.75"
         stop-color="#de5926"
         stop-opacity="0.775"
         id="stop283-3-0" />
      <stop
         offset="0.94999999"
         stop-color="#b02228"
         id="stop285-4-7"
         style="stop-color:#b02228;stop-opacity:0.43037975;" />
    </radialGradient>
    <linearGradient
       inkscape:collect="always"
       xlink:href="#SVGID_32_-81-9"
       id="linearGradient6085"
       gradientUnits="userSpaceOnUse"
       gradientTransform="matrix(0.1288154,0.02658511,0.02658511,-0.1288154,-7.603332,33.333276)"
       x1="67.709999"
       y1="195.75999"
       x2="47.567001"
       y2="247.37" />
    <linearGradient
       id="SVGID_32_-81-9"
       gradientUnits="userSpaceOnUse"
       x1="67.709999"
       y1="195.75999"
       x2="47.567001"
       y2="247.37"
       gradientTransform="matrix(1,0,0,-1,-22.5352,286.4424)">
      <stop
         offset="0.169"
         stop-color="#b02228"
         id="stop272-7-8" />
      <stop
         offset="0.406"
         stop-color="#bf3628"
         stop-opacity="0.744"
         id="stop274-7-7" />
      <stop
         offset="0.623"
         stop-color="#c84228"
         stop-opacity="0.51"
         id="stop276-3-6" />
      <stop
         offset="1"
         stop-color="#e05a27"
         stop-opacity="0"
         id="stop278-8-5" />
    </linearGradient>
    <radialGradient
       inkscape:collect="always"
       xlink:href="#SVGID_24_-15-1"
       id="radialGradient6088"
       gradientUnits="userSpaceOnUse"
       gradientTransform="matrix(0.12872037,0.02704147,0.01694689,-0.08066905,-3.8756858,15.20308)"
       cx="179.42"
       cy="84.110001"
       r="78.669998" />
    <radialGradient
       id="SVGID_24_-15-1"
       cx="179.42"
       cy="84.110001"
       r="78.669998"
       gradientTransform="matrix(1,0,0,-0.6267,-22.5352,146.1352)"
       gradientUnits="userSpaceOnUse">
      <stop
         stop-color="#e05a27"
         stop-opacity="0.1"
         id="stop178-5-7" />
      <stop
         offset="0.306"
         stop-color="#de5926"
         stop-opacity="0.845"
         id="stop180-7-9" />
      <stop
         offset="0.556"
         stop-color="#b02228"
         id="stop182-2-5" />
    </radialGradient>
    <linearGradient
       inkscape:collect="always"
       xlink:href="#linearGradient6128"
       id="linearGradient2917"
       gradientUnits="userSpaceOnUse"
       x1="5"
       y1="43"
       x2="43"
       y2="10" />
    <linearGradient
       id="linearGradient6128">
      <stop
         id="stop6130"
         offset="0"
         style="stop-color:#c8226c;stop-opacity:1" />
      <stop
         style="stop-color:#ff3526;stop-opacity:1"
         offset="0.25"
         id="stop2943" />
      <stop
         style="stop-color:#ff8d03;stop-opacity:1"
         offset="0.5"
         id="stop2939" />
      <stop
         id="stop2941"
         offset="0.75"
         style="stop-color:#ffb503;stop-opacity:1" />
      <stop
         id="stop6132"
         offset="1"
         style="stop-color:#ffec49;stop-opacity:1" />
    </linearGradient>
    <linearGradient
       inkscape:collect="always"
       xlink:href="#SVGID_4_-4-4"
       id="linearGradient6094"
       gradientUnits="userSpaceOnUse"
       gradientTransform="matrix(0.13017537,-0.01053556,-0.01248221,-0.15424538,0.84253546,46.33234)"
       x1="42.539001"
       y1="211.64"
       x2="-12.397"
       y2="122.17" />
    <linearGradient
       id="SVGID_4_-4-4"
       gradientUnits="userSpaceOnUse"
       x1="42.539001"
       y1="211.64"
       x2="-12.397"
       y2="122.17"
       gradientTransform="matrix(0.9897,-0.0801,-0.0949,-1.1727,14.9456,356.3413)">
      <stop
         offset="0.056"
         stop-color="#dc7327"
         id="stop26-74-2" />
      <stop
         offset="1"
         stop-color="#edbd6b"
         id="stop28-27-2" />
    </linearGradient>
    <linearGradient
       inkscape:collect="always"
       xlink:href="#SVGID_3_-6-0"
       id="linearGradient6097"
       gradientUnits="userSpaceOnUse"
       gradientTransform="matrix(0.12722909,0.03336919,0.03336919,-0.12722909,-160.26477,147.92466)"
       y1="1295.53"
       x2="0"
       y2="1133.05" />
    <linearGradient
       id="SVGID_3_-6-0"
       gradientUnits="userSpaceOnUse"
       y1="1295.53"
       x2="0"
       y2="1133.05"
       gradientTransform="matrix(0.9673,0.2537,0.2537,-0.9673,-1209.9244,1128.7295)">
      <stop
         offset="0.056"
         stop-color="#dc7327"
         id="stop21-62-1" />
      <stop
         offset="1"
         stop-color="#eebc89"
         id="stop23-8-0" />
    </linearGradient>
    <clipPath
       clipPathUnits="userSpaceOnUse"
       id="clipPath6826">
      <rect
         rx="94.509346"
         ry="94.509346"
         y="13.086808"
         x="-29.135962"
         height="462.04568"
         width="462.04568"
         id="rect6828"
         style="display:inline;fill:url(#linearGradient6830);fill-opacity:1;stroke:none" />
    </clipPath>
    <clipPath
       id="SVGID_18_-5-7-3-9-7">
      <use
         height="1052.3622"
         width="744.09448"
         y="0"
         x="0"
         xlink:href="#SVGID_17_"
         id="use401-3-3-2-0-9" />
    </clipPath>
    <clipPath
       id="SVGID_18_-4-00-5-1-6">
      <use
         height="1052.3622"
         width="744.09448"
         y="0"
         x="0"
         xlink:href="#SVGID_17_"
         id="use401-8-9-0-6-1" />
    </clipPath>
    <linearGradient
       inkscape:collect="always"
       xlink:href="#linearGradient4524-3"
       id="linearGradient6008"
       gradientUnits="userSpaceOnUse"
       gradientTransform="translate(1.9572796e-6)"
       x1="19.999998"
       y1="43"
       x2="29.999998"
       y2="3" />
    <linearGradient
       id="linearGradient4524-3">
      <stop
         style="stop-color:#45177b;stop-opacity:1"
         offset="0"
         id="stop4526-6" />
      <stop
         id="stop2945"
         offset="0.5"
         style="stop-color:#0e4fd1;stop-opacity:1" />
      <stop
         style="stop-color:#0093f9;stop-opacity:1"
         offset="1"
         id="stop4528-7" />
    </linearGradient>
  </defs>
  <sodipodi:namedview
     id="base"
     pagecolor="#ffffff"
     bordercolor="#666666"
     borderopacity="1.0"
     inkscape:pageopacity="0.0"
     inkscape:pageshadow="2"
     inkscape:zoom="2.9270326"
     inkscape:cx="34.487479"
     inkscape:cy="37.808298"
     inkscape:document-units="px"
     inkscape:current-layer="layer2"
     showgrid="true"
     inkscape:showpageshadow="false"
     borderlayer="true"
     inkscape:window-width="1920"
     inkscape:window-height="1012"
     inkscape:window-x="0"
     inkscape:window-y="32"
     inkscape:window-maximized="1"
     showguides="false"
     inkscape:guide-bbox="true">
    <inkscape:grid
       type="xygrid"
       id="grid4162" />
    <sodipodi:guide
       position="1.0000013,47.000017"
       orientation="46,0"
       id="guide4163"
       inkscape:locked="false" />
    <sodipodi:guide
       position="1.0000013,1.0000174"
       orientation="0,45.999999"
       id="guide4165"
       inkscape:locked="false" />
    <sodipodi:guide
       position="47,1.0000174"
       orientation="-46,0"
       id="guide4167"
       inkscape:locked="false" />
    <sodipodi:guide
       position="47,47.000017"
       orientation="0,-45.999999"
       id="guide4169"
       inkscape:locked="false" />
    <sodipodi:guide
       position="2.0000007,46.000017"
       orientation="44,0"
       id="guide4173"
       inkscape:locked="false" />
    <sodipodi:guide
       position="2.0000007,2.0000174"
       orientation="0,43.999999"
       id="guide4175"
       inkscape:locked="false" />
    <sodipodi:guide
       position="46,2.0000174"
       orientation="-44,0"
       id="guide4177"
       inkscape:locked="false" />
    <sodipodi:guide
       position="46,46.000017"
       orientation="0,-43.999999"
       id="guide4179"
       inkscape:locked="false" />
    <sodipodi:guide
       position="3,45.000017"
       orientation="42,0"
       id="guide4183"
       inkscape:locked="false" />
    <sodipodi:guide
       position="45,3.0000174"
       orientation="-42,0"
       id="guide4187"
       inkscape:locked="false" />
    <sodipodi:guide
       position="45,45.000017"
       orientation="0,-42"
       id="guide4189"
       inkscape:locked="false" />
    <sodipodi:guide
       position="3,45.000017"
       orientation="42,0"
       id="guide4193"
       inkscape:locked="false" />
    <sodipodi:guide
       position="3,3.0000174"
       orientation="0,42"
       id="guide4195"
       inkscape:locked="false" />
    <sodipodi:guide
       position="45,3.0000174"
       orientation="-42,0"
       id="guide4197"
       inkscape:locked="false" />
    <sodipodi:guide
       position="45,45.000017"
       orientation="0,-42"
       id="guide4199"
       inkscape:locked="false" />
    <sodipodi:guide
       position="3,10.000017"
       orientation="7,0"
       id="guide4203"
       inkscape:locked="false" />
    <sodipodi:guide
       position="3,3.0000174"
       orientation="0,42"
       id="guide4205"
       inkscape:locked="false" />
    <sodipodi:guide
       position="45,3.0000174"
       orientation="-7,0"
       id="guide4207"
       inkscape:locked="false" />
    <sodipodi:guide
       position="45,10.000017"
       orientation="0,-42"
       id="guide4209"
       inkscape:locked="false" />
  </sodipodi:namedview>
  <metadata
     id="metadata4235">
    <rdf:RDF>
      <cc:Work
         rdf:about="">
        <dc:format>image/svg+xml</dc:format>
        <dc:type
           rdf:resource="http://purl.org/dc/dcmitype/StillImage" />
        <dc:title></dc:title>
      </cc:Work>
    </rdf:RDF>
  </metadata>
  <g
     inkscape:groupmode="layer"
     id="layer3"
     inkscape:label="Fake blur shadow"
     style="display:inline"
     sodipodi:insensitive="true">
    <path
       style="opacity:0.06000001;fill:#000000;fill-opacity:1;stroke:none"
       d="M 10,1 C 5.014,1 1,5.014 1,10 l 0,28 c 0,4.986 4.014,9 9,9 l 28,0 c 4.986,0 9,-4.014 9,-9 L 47,10 C 47,5.014 42.986,1 38,1 L 10,1 z m 0.5,0.5 27,0 c 4.986,0 9,4.014 9,9 l 0,27 c 0,4.986 -4.014,9 -9,9 l -27,0 c -4.986,0 -9,-4.014 -9,-9 l 0,-27 c 0,-4.986 4.014,-9 9,-9 z"
       id="rect3829"
       inkscape:connector-curvature="0" />
    <path
       style="opacity:0.12000002;fill:#000000;fill-opacity:1;stroke:none"
       d="m 10.5,1.5 c -4.986,0 -9,4.014 -9,9 l 0,27 c 0,4.986 4.014,9 9,9 l 27,0 c 4.986,0 9,-4.014 9,-9 l 0,-27 c 0,-4.986 -4.014,-9 -9,-9 l -27,0 z m 0.25,0.25 26.5,0 c 4.986,0 9,4.014 9,9 l 0,26.5 c 0,4.986 -4.014,9 -9,9 l -26.5,0 c -4.986,0 -9,-4.014 -9,-9 l 0,-26.5 c 0,-4.986 4.014,-9 9,-9 z"
       id="rect3827"
       inkscape:connector-curvature="0" />
    <rect
       style="opacity:0.23999999;fill:#000000;fill-opacity:1;stroke:none"
       id="rect3038-4"
       width="44.5"
       height="44.5"
       x="1.75"
       y="1.75"
       ry="9"
       rx="9" />
  </g>
  <g
     inkscape:groupmode="layer"
     id="layer6"
     inkscape:label="Blob"
     style="display:inline"
     sodipodi:insensitive="true">
    <path
       style="opacity:0.3;fill:url(#radialGradient4274);fill-opacity:1;stroke:none"
       d="M 1.03125,39 C 1.5192036,43.518898 5.3471961,47 10,47 l 28,0 c 4.652804,0 8.480796,-3.481102 8.96875,-8 l -45.9375,0 z"
       id="rect4241"
       inkscape:connector-curvature="0" />
  </g>
  <g
     inkscape:groupmode="layer"
     id="layer2"
     inkscape:label="Baseplate"
     style="display:inline">
    <rect
       inkscape:export-ydpi="480"
       inkscape:export-xdpi="480"
       inkscape:export-filename="/home/max/Desktop/Firefox3.png"
       style="display:inline;fill:url(#linearGradient6008);fill-opacity:1;stroke:none"
       id="rect3038"
       width="44"
       height="44"
       x="2.0000005"
       y="1.999983"
       ry="9"
       rx="9" />
    <g
       clip-path="url(#clipPath6826)"
       transform="matrix(0.09522868,0,0,0.09522868,4.757315,0.7537439)"
       id="g3709-6-1-7"
       style="display:inline;opacity:0.15;fill:#000000;fill-opacity:1">
      <g
         style="fill:#000000;fill-opacity:1"
         transform="matrix(1.3812029,0,0,1.3812029,-61.933445,-3.0558481)"
         id="g4759-5-0-6">
        <path
           style="fill:#000000;fill-opacity:1"
           inkscape:connector-curvature="0"
           d="m 3,203.5 c 0.2,-2.8 7,-59.4 33.2,-78.5 22.6,-16.5 5,-10.5 -3.7,-9.8 -9.2,0.7 -14.1,6.3 -12.3,4.3 0.1,-0.1 0.1,-0.1 0.1,-0.2 C 20,118.9 -1.3,136.8 3,203.5 Z"
           id="path491-6-5-5" />
        <path
           style="fill:#000000;fill-opacity:1"
           inkscape:connector-curvature="0"
           d="m 0,159.3 c 0,0 15.4,-49 46.6,-48.5 20.7,0.3 4.3,-17.5 -2,-20.2 -6.5,-2.8 -8.1,-2.7 -9.6,-1.3 -2.3,2 -22.8,1.2 -35,70 z"
           id="path493-6-1-0" />
        <path
           style="fill:#000000;fill-opacity:1"
           inkscape:connector-curvature="0"
           d="m 177.6,205.1 c -1,1 0.1,3.9 1.4,3.8 1.3,-0.1 3.2,-0.7 3.2,-0.7 0,0 1,1.9 0,2.5 -1,0.5 -3.8,0.3 -0.1,1.7 3.8,1.4 4.8,1 5,0.3 0.3,-0.7 1.5,-3.1 2.2,-2.9 0.6,-1.2 -2,-2.4 -0.6,-3.2 1.4,-0.8 0.3,-3.9 0.3,-3.9 0,0 -2,0.1 -2.8,1.5 -0.8,1.4 -2,-0.1 -2.8,-0.1 -0.1,0.8 -0.7,1.5 -0.7,1.5 l -0.6,-1.3 c 0.1,-0.1 -3.8,-0.2 -4.5,0.8 z"
           id="path513-1-8-5" />
        <path
           sodipodi:nodetypes="cccccccccccccccccccccccccccccsccscccscccccccccccccccccccccccccccccccccccccccsccccccccccccccccccc"
           style="fill:#000000;fill-opacity:1"
           inkscape:connector-curvature="0"
           d="m 373.51603,255.7065 c -5.18936,-19.36698 -13.53211,-15.9952 -6.85681,-28.82526 8.83378,-17.10451 25.12422,-66.39355 11.62422,-104.49355 6.2,23.8 4.2,48 -15.4,60.2 6.4,-16.8 17.96514,-55.06195 7.77811,-87.322062 -6.69834,-20.98052 -18.24331,-45.53915 -27.56204,-50.524248 6.22794,6.07992 13.5925,32.881346 14.5167,42.840555 -19.99347,-26.421981 -50.58388,-50.438783 -93.41088,-57.172181 34.69752,17.61511 48.76473,34.341247 58.13582,49.585353 -9.64439,-7.866756 -25.38388,-15.346624 -35.50983,-15.0074 16.16281,9.444759 40.15212,35.699983 37.45212,85.999983 -3.9,-8.1 -18.93971,-26.51452 -23.93971,-30.91452 12.82463,30.4672 17.30408,47.55271 15.81182,94.92248 -0.89996,-5.97328 -13.57192,-21.63038 -14.77192,-24.33038 0,0 11.7174,38.25583 -3.3174,67.66499 -19.84743,27.1579 -52.09571,36.30237 -53.62187,30.76777 0,0 -1.02952,-6.20669 7.03126,-12.96251 0,0 -8.31876,1.55938 -10.41876,4.45938 l -3.72657,2.77656 -1.96406,1.25468 c -4.9,5.1 -18.25938,9.94688 -20.55938,8.34688 2.1,-0.7 3.9,-6.55 4.3,-9.25 -1.9,1.4 -6.8,8.15 -17.8,9.85 -27.69328,3.29614 -46.6615,-3.2564 -73.11448,-15.31759 3.53371,-1.18453 3.35815,-7.01117 8.30429,-4.00578 -5.61075,-6.09775 -10.21134,-0.10366 -18.16092,-2.3156 -6.9643,-1.91502 -5.68544,-34.08168 -9.4717,-39.46259 18.21703,8.67986 39.2944,9.47629 52.70945,3.88376 13.63119,-5.64984 21.91983,-10.16077 27.88192,-7.39248 5.9824,2.67038 11.49236,-2.72316 7.77424,-9.4176 -3.71813,-6.69444 -14.10046,-16.71129 -31.08925,-16.04709 -13.0852,0.55456 -25.61313,8.27147 -41.62094,-2.19706 -0.99586,-0.61502 -1.97142,-1.32797 -2.92667,-2.13882 -0.95526,-0.81086 3.48078,1.43671 2.44792,0.50763 -3.0652,-1.9633 -8.56749,-5.9639 -9.9108,-7.36587 -0.25314,-0.25675 2.44431,1.01752 2.19117,0.76077 -14.5174,-13.22328 -11.81588,-20.83327 -10.82092,-25.63119 0.81221,-3.91667 4.2384,-8.61893 9.15229,-10.1531 2.16725,1.36858 3.47356,2.45649 3.47356,2.45649 0,0 -0.73189,-1.88794 -1.23456,-2.91133 0.21614,-0.0573 0.31406,-0.037 0.5302,-0.0943 1.81619,1.09153 5.89756,3.57194 7.80807,5.19366 2.73083,2.09821 3.38512,3.86794 3.38512,3.86794 0,0 0.78694,-0.34745 0.4061,-1.95834 -0.15161,-0.74633 -0.84289,-2.83011 -3.4149,-5.20177 0.0979,0.0203 0.0979,0.0203 0.0979,0.0203 1.44483,0.91239 2.94698,2.04091 4.48612,3.48349 1.13575,-2.52192 2.78138,-5.04023 3.09093,-9.98028 0.12318,-3.54892 0.38354,-4.31195 -0.13582,-5.74731 -0.46206,-1.21922 0.50041,-1.42814 1.39475,-0.32353 -0.111,-0.94217 -0.34023,-1.80673 -0.54915,-2.7692 v 0 c 1.75439,-4.02767 29.32586,-11.89304 31.47055,-12.87807 2.93164,-1.33248 6.18455,-3.72173 8.55983,-6.80363 1.62172,-1.9105 3.13243,-4.76318 3.87065,-9.30796 0.47424,-3.27186 -0.98007,-5.616 -27.57643,-10.825 -7.26614,-1.40468 -11.09302,-6.589763 -13.10008,-11.193206 -0.40476,-1.003083 -0.7319,-1.887944 -1.05904,-2.772805 -0.36414,-1.198916 -0.63036,-2.377528 -0.76167,-3.221778 5.50906,-10.806489 13.9448,-19.474149 25.51974,-25.550397 0.68903,-0.367752 -2.41092,-0.193579 -1.72189,-0.561331 0.80725,-0.445363 5.44408,-1.628484 6.30864,-1.857708 1.101,-0.384446 -4.17568,-3.010604 -9.07874,-3.006094 -5.00097,-0.0158 -6.00405,0.388956 -8.81386,1.133934 1.20253,-0.87403 4.75867,-1.770621 3.95503,-1.835147 -5.43326,0.09882 -12.3127,2.246664 -18.25359,4.793399 0.10153,-0.489583 0.18275,-0.88125 0.42281,-1.546362 -2.71189,0.765283 -9.63917,4.128743 -11.81861,7.251249 0.16245,-0.783334 0.24367,-1.175001 0.30819,-1.97864 -1.98947,1.221476 -4.03985,2.736704 -5.91471,4.390458 0,0 -0.0203,0.09792 -0.11823,0.07761 -14.67893,-7.027003 -27.982528,-8.866672 -39.778115,-7.636176 -2.257951,-2.408663 -5.85921,-6.219297 -10.385486,-17.881322 -0.269835,-0.668722 -0.675942,1.289613 -0.945777,0.620891 -1.669094,-5.24825 -2.158223,-13.724142 -1.274261,-19.46423 0,0 -4.815972,1.554482 -9.385125,9.79844 -0.81447,1.465142 -1.388885,2.265171 -1.865384,3.085506 -0.158832,0.273445 0.78469,-2.798976 0.625857,-2.525531 -0.712943,0.975558 -2.645108,2.413173 -3.540799,4.269982 -0.696248,1.38753 -1.466497,2.146948 -2.048132,3.966756 0,0 -0.02031,0.09792 -0.118222,0.07761 0.101526,-0.489583 0.348801,-2.174474 0.189968,-1.901029 -1.942995,2.967283 -3.791684,6.464761 -5.643982,10.472128 -2.7516,6.374065 -6.010834,15.196048 -7.525618,26.932974 -0.203053,0.979168 -0.287885,1.880724 -0.450328,2.664058 -5.408437,4.903958 -9.067459,9.251551 -10.652177,11.476111 -7.142514,8.83372 -15.4997408,23.03255 -24.6240617,45.85527 0,0 4.687375,-8.32157 12.3600837,-17.24959 -6.7522024,11.87635 -14.1830575,30.96516 -18.3772502,61.04004 0.3009705,-0.95886 2.745735,-8.3157 6.99135713,-17.95441 -3.02458093,20.00253 -10.01579693,96.148 5.68420317,123.048 11.9999999,20.5 12.3165559,57.70552 65.8015819,74.02059 19.356428,12.76295 72.432807,8.67941 85.698417,8.67941 0,0 145.13211,19.19891 171.63211,-16.90109 14.66542,-10.34707 42.47137,-33.97025 44.95781,-36.49366 7.50789,-40.19216 6.92245,-34.08406 0,-59.91898 z"
           id="path523-7-5-3" />
        <path
           style="opacity:0.39919356;fill:#000000;fill-opacity:1"
           inkscape:connector-curvature="0"
           d="m 177.87746,114.70211 c 0.4827,-3.27063 -1.09957,-5.95324 -27.66177,-11.32904 -10.88345,-2.18419 -13.97812,-12.746061 -14.89675,-17.128541 -4.99675,9.679483 -7.70647,20.145981 -8.16447,33.026981 -0.35687,8.50839 4.05525,16.69026 6.2568,22.2619 0.61844,0.94739 0.96877,1.22536 1.2673,0.77716 1.7089,-2.29776 27.77597,-10.6163 29.94377,-11.69362 2.22455,-0.86106 11.68851,-6.02567 13.25512,-15.91484 z"
           id="path529-4-9-9" />
        <path
           style="opacity:0.52822583;fill:#000000;fill-opacity:1"
           inkscape:connector-curvature="0"
           d="m 65.884891,42.097974 c -0.270471,-0.668464 -0.674714,1.290256 -0.945186,0.621792 -1.674088,-5.24666 -2.171283,-13.722083 -1.292783,-19.46301 0,0 -4.814491,1.559066 -9.375796,9.807368 -0.813076,1.465916 -1.386729,2.266492 -1.862446,3.087279 -0.158573,0.273596 0.782024,-2.79972 0.623452,-2.526125 -0.712015,0.976236 -2.64281,2.415689 -3.536734,4.273349 -0.715139,1.486129 -1.484665,2.246279 -2.182717,4.144364 -0.219209,0.567404 0.387156,-2.370678 0.18816,-1.901209 C 37.087975,55.963672 32.676933,81.294932 33.78069,80.399545 54.403904,62.600582 76.267177,60.067341 76.267177,60.067341 74.162383,57.897124 69.742961,52.594417 65.884891,42.097974 Z"
           id="path549-7-1-6" />
        <g
           style="opacity:0.70161288;fill:#000000;fill-opacity:1"
           transform="rotate(11.661064,103.53081,141.77338)"
           id="g551-6-2-5">
          <path
             style="fill:#000000;fill-opacity:1"
             inkscape:connector-curvature="0"
             d="m 163.1,117.3 c 1.4,-1.1 6.3,-5.6 7.5,-10.9 -0.9,0.4 -1,-0.7 -2,-0.2 -1.8,1.9 -6.2,6.5 -11.4,9.8 1.4,-1.3 3.9,-3.2 4.5,-4.2 -5.6,3.9 -12.5,6.6 -17.9,6 -0.8,0 4,0.5 8.2,-2.8 -4.1,1.9 -11.1,1.7 -11.8,1.5 -0.6,-0.2 6.9,-1 6.2,-1.2 -3.5,-1.2 -8.1,-0.4 -9.1,0.1 -1.9,0.9 -3.8,2.2 -5.2,3.9 0.8,-1 1.1,-1.9 2,-3.4 -2.6,2.5 -6.2,5.2 -6.7,5.3 0.4,-0.8 6.3,-5.3 5.2,-4.9 -0.7,0.7 -3.2,2.1 -4.9,3.4 -0.5,0.3 3.5,-3.3 3.1,-3 -6.7,1.7 -6,5.4 -6.2,5.5 0.1,0.2 0.1,0.7 0.3,0.9 0.8,2.4 3.7,6.5 6.4,10.4 2,2.4 2.6,5.1 2.7,4.2 0.9,-4.4 27.2,-18.9 29.1,-20.4 z"
             id="path553-2-7-9" />
        </g>
        <path
           style="fill:#000000;fill-opacity:1"
           inkscape:connector-curvature="0"
           d="m 176.69231,122.14674 c 1.78159,-2.69553 4.56756,-9.26809 0.95329,-11.54562 -3.07018,-1.45048 -5.78906,-2.62425 -11.09782,-3.61777 1.68201,0.75556 6.55234,2.88388 7.34042,5.49711 1.61658,5.03057 -2.25917,13.42036 -3.60548,15.49098 3.06873,-1.51092 4.64821,-3.2271 6.40959,-5.8247 z"
           id="path559-2-2-9" />
        <path
           style="opacity:0.32661288;fill:#000000;fill-opacity:1"
           inkscape:connector-curvature="0"
           d="m 109.23141,232.72425 c 17.50243,8.20701 38.91166,9.35804 52.43953,3.67502 9.06471,-3.84722 22.20083,-9.61109 27.20953,-7.65842 -5.53255,-2.87764 -9.89613,-4.49295 -15.14738,-5.2704 -0.97935,-0.20212 -1.88099,-0.28609 -2.88056,-0.39027 -1.80328,-0.16795 -3.70448,-0.35612 -5.84199,-0.38883 -3.27544,0.0384 -7.18829,1.68181 -10.42018,1.01481 -0.19588,-0.0405 3.37963,-1.03834 3.08582,-1.09898 -1.76598,0.14608 -3.6874,0.0559 -5.74719,0.14124 -1.23586,0.0513 -2.45152,0.005 -3.66717,-0.0421 -38.33674,-0.76446 -67.981178,-27.81456 -67.981178,-27.81456 -3.780942,8.9199 9.296878,28.67086 28.950768,37.83243 z"
           id="path561-9-3-2" />
        <path
           style="fill:#000000;fill-opacity:1"
           inkscape:connector-curvature="0"
           d="m 116.44456,67.699586 c 0,0 -3.2967,2.581062 -5.90813,5.305101 -2.96639,2.956439 -5.58206,6.190363 -5.58206,6.190363 0,0 -9.443988,-10.551372 -19.081733,-14.298889 -9.637747,-3.747513 -12.635777,-4.06659 -12.635777,-4.06659 0,0 18.439021,-5.142227 43.2077,6.870015 z"
           id="path577-6-2-0" />
      </g>
      <path
         inkscape:connector-curvature="0"
         style="opacity:0.6;fill:#000000;fill-opacity:1"
         id="path519-4-4-4-3"
         d="m 302.7,277.3 c 9.7,-18.2 22.8,-28.8 29.9,-41.4 9.4,-16.7 27.2,-63.8 13.8,-101.7 6.2,23.8 4.2,47.9 -15.4,60 6.3,-16.7 10.3,-53.5 3.8,-86.6 -4.3,-21.5 -17.7,-40.8 -26.5,-46.8 8.1,6.1 14.6,27.8 14.4,37.7 C 305.8,70 278.2,42.8 236.6,31.3 269,52.7 281.1,70.8 288.7,86.9 280,78.1 265.2,68.8 255.2,68 c 15,11.2 40.1,44.3 37.5,94.4 -3.9,-8.1 -10.9,-20.7 -15.9,-25.2 5.4,49.3 0.7,59.9 -2.6,72.9 -0.7,-6 -2.9,-10.5 -4.1,-13.3 0,0 -0.6,15.4 -10.6,37.3 -7.6,16.6 -15.4,21.7 -18.9,21.2 -3.1,-0.5 -1,-3.5 -1.5,-6.4 0,0 -5.2,2.5 -10.4,7.9 -4.9,5.1 -9.3,10.7 -11.6,9.1 1.7,-1.4 3,-3.8 4.3,-6.1 -1.9,1.3 -6.8,5 -17.8,6.6 -4.5,0.7 -23.6,4.1 -49,-8.6 3.7,-0.4 9.2,-1.7 13.5,0.8 -4.2,-4.6 -14.4,-3.7 -21.7,-6 -6.4,-2 -14.7,-11 -19.5,-15.5 19.5,4.8 40.3,1.3 52.3,-6.9 12.1,-8.3 19.3,-14.4 25.7,-12.9 6.4,1.4 10.7,-5 5.7,-10.8 -5,-5.7 -17.1,-13.5 -33.6,-9.3 -14.2,3.5 -26,15.9 -47.9,2.9 -18.7,-11.1 -18.6,-20.1 -18.6,-25.8 0,-3.9 2.4,-9.3 6.9,-11.8 2.4,0.9 3.9,1.7 3.9,1.7 0,0 -1.1,-1.7 -1.8,-2.6 0.2,-0.1 0.3,-0.1 0.5,-0.2 2,0.7 6.4,2.3 8.7,3.5 3.1,1.5 4.1,3.1 4.1,3.1 0,0 0.7,-0.4 0,-2 -0.3,-0.7 -1.4,-2.6 -4.4,-4.4 0.1,0 0.1,0 0.2,0 1.6,0.6 3.3,1.4 5.1,2.5 0.6,-2.7 1.7,-5.5 1,-10.4 -0.5,-3.5 -0.5,-4.3 -1.3,-5.6 -0.7,-1.1 0.2,-1.5 1.3,-0.6 -0.3,-0.8 -0.7,-1.7 -1.1,-2.6 0,0 0,0 0,0 1,-4.2 26.2,-17.5 28.1,-18.9 2.6,-1.9 5.3,-4.9 7,-8.4 1.2,-2.2 2.1,-5.3 1.8,-9.8 -0.2,-3.3 -2.1,-5.2 -29.1,-5 -7.4,0.1 -12.2,-4.2 -15.1,-8.3 -0.6,-0.9 -1.1,-1.7 -1.6,-2.5 -0.6,-1.1 -1.1,-2.2 -1.4,-3 3.2,-11.7 9.7,-21.9 19.8,-30.1 0.6,-0.5 -2.4,0.3 -1.8,-0.2 0.7,-0.6 4.9,-2.7 5.7,-3.1 1,-0.6 -4.6,-2.1 -9.5,-1.1 -4.9,1 -5.8,1.6 -8.3,2.9 1,-1.1 4.3,-2.7 3.5,-2.6 -5.3,1.2 -11.5,4.7 -16.8,8.4 0,-0.5 0,-0.9 0.1,-1.6 -2.5,1.3 -8.6,6 -10.1,9.5 0,-0.8 0,-1.2 -0.1,-2 -1.7,1.6 -3.4,3.4 -4.9,5.5 0,0 0,0 -0.1,0.1 -15.8,-3.9 -29.2,-3 -40.4,0.6 -2.7,-1.9 -7,-4.9 -13.7,-15.4 -0.4,-0.6 -0.4,1.4 -0.8,0.8 -2.7,-4.8 -4.9,-12.9 -5.2,-18.8 0,0 -4.3,2.5 -7.2,11.5 -0.5,1.6 -0.9,2.5 -1.2,3.4 -0.1,0.3 0.2,-2.9 0.1,-2.6 -0.5,1.1 -2.1,2.9 -2.6,4.9 -0.4,1.5 -1,2.4 -1.2,4.3 0,0 0,0.1 -0.1,0.1 0,-0.5 -0.1,-2.2 -0.2,-1.9 -1.3,3.3 -2.4,7.1 -3.4,11.4 -1.4,6.8 -2.8,16.1 -1.9,27.8 0,1 0.1,1.9 0.1,2.7 -4.2,5.8 -7,10.9 -8.1,13.4 -5.2,10.1 -10.5,25.6 -14.8,49.7 0,0 2.9,-9.1 8.6,-19.4 -4.2,13 -7.6,33.1 -5.6,63.4 0.1,-1 1,-8.6 3.2,-18.9 1.1,20.1 5.9,44.8 21.5,71.7 11.9,20.4 43.4,67.9 122.3,85.7 -8.7,-2.5 -14,-7.5 -14,-7.5 0,0 29.5,9.5 51,8.7 -6.7,-1.2 -8.1,-4.4 -8.1,-4.4 0,0 76.5,4.3 103,-31.8 -9.1,10.6 -32,13.6 -40.6,13.7 13.2,-12.1 42.3,-11.8 73.9,-42.9 17.3,-17 19.2,-30 21.1,-42.1 -2.9,16.3 -18,25.8 -33.8,34.5 z"
         clip-path="url(#SVGID_18_-5-7-3-9-7)"
         transform="matrix(8.3587076,0,0,8.3587076,2655.7883,-13.82696)" />
      <path
         inkscape:connector-curvature="0"
         id="path517-7-5-9-3"
         d="m 175.5,337.9 c 93,0 168.3,-75.4 168.3,-168.4 C 343.8,76.5 268.5,1 175.5,1 82.5,1 7.2,76.5 7.2,169.5 c 0,93 75.3,168.4 168.3,168.4 z"
         clip-path="url(#SVGID_18_-4-00-5-1-6)"
         transform="matrix(8.3587076,0,0,8.3587076,-24.608276,-13.82696)"
         style="fill:#000000;fill-opacity:1" />
    </g>
    <path
       inkscape:connector-curvature="0"
       style="display:inline;fill:url(#linearGradient6097)"
       d="M 4.59375,14.40625 C 4.175962,14.44401 3.5853671,14.590473 3.15625,14.625 2.6591927,14.66282 2.2843207,14.796141 1.9999999,14.9375 v 2.78125 C 2.4722935,16.995897 2.9899183,16.369229 3.625,15.90625 c 1.8578631,-1.356404 1.6650633,-1.562939 0.96875,-1.5 z"
       id="path491-6" />
    <path
       inkscape:connector-curvature="0"
       style="display:inline;fill:url(#linearGradient6094)"
       d="m 3.625,11.09375 c -0.060833,0.02137 -0.1069262,0.07896 -0.15625,0.125 -0.1323522,0.115089 -0.7118835,0.134705 -1.4687501,0.90625 v 3.15625 C 2.8349433,14.537997 3.8262927,14.012441 5,14.03125 7.7226736,14.07071 5.5786398,11.730132 4.75,11.375 4.1087907,11.098787 3.807498,11.029629 3.625,11.09375 Z"
       id="path493-6" />
    <path
       inkscape:connector-curvature="0"
       style="display:inline;fill:url(#linearGradient2917);fill-opacity:1"
       d="M 7.25,2.8437504 C 6.9510904,2.9810335 6.6550026,3.1132863 6.375,3.2812504 6.2572334,3.4333832 6.1517765,3.5950388 6.03125,3.8125004 5.9241226,4.0052107 5.8439239,4.1108516 5.78125,4.2187504 5.760359,4.2547164 5.8958913,3.8390341 5.875,3.8750004 5.781226,4.0033156 5.5240603,4.1932741 5.40625,4.4375004 5.314672,4.6200024 5.2015025,4.7293908 5.125,4.9687504 c 0.013354,-0.064395 0.052141,-0.2859662 0.03125,-0.25 -0.2555624,0.3902872 -0.506367,0.8479105 -0.75,1.375 -0.3619183,0.8383816 -0.8007603,2.0187406 -1,3.5625 C 3.379542,9.7850405 3.365116,9.8969683 3.34375,10 2.6518968,10.62732 2.2172492,11.169429 1.9999999,11.46875 V 37 c 0,4.986 4.0140001,9 9.0000001,9 h 26 c 4.986,0 9,-4.014 9,-9 V 11 C 46,9.058492 45.381399,7.2796419 44.34375,5.8125004 45.069485,7.0681232 45.801404,9.8389303 45.90625,10.96875 43.276507,7.4934635 39.258041,4.3543951 33.625,3.4687504 38.18877,5.7856681 40.048669,7.9949412 41.28125,10 40.012722,8.965285 37.925617,7.9553822 36.59375,8.0000004 38.719646,9.2422707 41.886381,12.696534 41.53125,19.3125 41.018282,18.247106 39.03265,15.828733 38.375,15.25 c 1.686825,4.007355 2.290028,6.269448 2.09375,12.5 -0.118371,-0.785666 -1.779664,-2.863618 -1.9375,-3.21875 0,0 1.540029,5.038059 -0.4375,8.90625 -2.610535,3.572082 -6.861764,4.790467 -7.0625,4.0625 0,0 -0.122736,-0.830156 0.9375,-1.71875 0,0 -1.098787,0.212313 -1.375,0.59375 l -0.5,0.375 -0.25,0.15625 C 29.199252,37.577053 27.427519,38.210448 27.125,38 c 0.276213,-0.09207 0.509888,-0.863619 0.5625,-1.21875 -0.249907,0.184142 -0.896919,1.057649 -2.34375,1.28125 -3.642501,0.433542 -6.114386,-0.41359 -9.59375,-2 0.464789,-0.155801 0.443184,-0.92655 1.09375,-0.53125 -0.737982,-0.802038 -1.360641,-0.02157 -2.40625,-0.3125 -2.026412,-1.935984 -0.751993,-4.479748 -1.25,-5.1875 2.396088,1.141663 5.173017,1.266836 6.9375,0.53125 1.792912,-0.743124 2.872055,-1.332863 3.65625,-0.96875 0.786865,0.351236 1.520295,-0.369479 1.03125,-1.25 -0.489046,-0.88052 -1.859212,-2.212362 -4.09375,-2.125 -1.721098,0.07294 -3.363241,1.095677 -5.46875,-0.28125 -0.130986,-0.08089 -0.249356,-0.174599 -0.375,-0.28125 0.06982,0.02161 0.245234,0.07602 0.3125,0.09375 -0.0032,-0.0046 0.0085,-0.02361 0,-0.03125 C 14.784333,25.460517 14.051685,24.934402 13.875,24.75 13.8417,24.71623 14.220795,24.87752 14.1875,24.84375 12.278024,23.10449 12.619132,22.131071 12.75,21.5 c 0.10683,-0.51516 0.572426,-1.14196 1.21875,-1.34375 0.285059,0.18001 0.4375,0.3125 0.4375,0.3125 0,0 -0.09014,-0.240393 -0.15625,-0.375 0.02843,-0.0075 0.03407,-0.02375 0.0625,-0.03125 0.238883,0.143569 0.779961,0.474194 1.03125,0.6875 0.359187,0.275977 0.4375,0.53125 0.4375,0.53125 0,0 0.112587,-0.06937 0.0625,-0.28125 -0.01837,-0.09042 -0.09831,-0.343948 -0.375,-0.625 0.173553,0.113717 0.347707,0.234221 0.53125,0.40625 0.149386,-0.331709 0.365535,-0.662734 0.40625,-1.3125 0.0162,-0.46679 0.03707,-0.561207 -0.03125,-0.75 -0.06077,-0.160364 0.06987,-0.176543 0.1875,-0.03125 -0.0146,-0.123924 -0.03502,-0.248406 -0.0625,-0.375 0.230755,-0.52976 3.842908,-1.557939 4.125,-1.6875 0.385599,-0.175262 0.843829,-0.500887 1.15625,-0.90625 0.213305,-0.251288 0.402902,-0.620974 0.5,-1.21875 0.06238,-0.430348 -0.126777,-0.752359 -3.625,-1.4375 -0.955716,-0.184757 -1.454761,-0.863259 -1.71875,-1.46875 -0.05324,-0.131936 -0.113224,-0.227364 -0.15625,-0.34375 -0.0479,-0.157693 -0.07648,-0.326455 -0.09375,-0.4375 0.724607,-1.4213782 1.821297,-2.5445399 3.34375,-3.3437496 0.09063,-0.04837 -0.309378,-0.045379 -0.21875,-0.09375 0.106178,-0.058579 0.730034,-0.2198501 0.84375,-0.25 0.144815,-0.050566 -0.57385,-0.3755932 -1.21875,-0.375 -0.657778,-0.00208 -0.786675,0.027012 -1.15625,0.125 0.158169,-0.1149613 0.636953,-0.2102629 0.53125,-0.21875 -0.714638,0.012998 -1.624844,0.2900276 -2.40625,0.625 0.01335,-0.064395 0.03093,-0.1312677 0.0625,-0.21875 -0.356695,0.1006578 -1.275838,0.5580463 -1.5625,0.96875 0.02137,-0.1030321 0.02276,-0.1442973 0.03125,-0.25 -0.261675,0.1606609 -0.503399,0.3449815 -0.75,0.5625 0,0 -0.0184,0.00267 -0.03125,0 -1.93073,-0.9243015 -3.667275,-1.1618473 -5.21875,-1 C 8.6405114,7.0269387 8.1578416,6.5339081 7.5625,5.0000004 7.527008,4.9120434 7.472991,5.1817075 7.4375,5.0937504 7.2454058,4.4897353 7.1874254,3.5723619 7.25,2.8437504 Z"
       id="path523-7" />
    <path
       style="display:inline;opacity:0.39919356;fill:url(#radialGradient6088)"
       inkscape:connector-curvature="0"
       d="m 22.272984,14.549506 c 0.06349,-0.430187 -0.144626,-0.783031 -3.638356,-1.49011 -1.431502,-0.287287 -1.838544,-1.676491 -1.959371,-2.252919 -0.657224,1.273143 -1.013633,2.649803 -1.073874,4.344043 -0.04694,1.119109 0.533387,2.195272 0.822957,2.92811 0.08134,0.124611 0.127423,0.161172 0.166689,0.10222 0.224771,-0.302224 3.653377,-1.396363 3.938508,-1.538063 0.292595,-0.113256 1.537391,-0.792557 1.743447,-2.093281 z"
       id="path529-4" />
    <path
       style="display:inline;opacity:0.52822583;fill:url(#linearGradient6085)"
       inkscape:connector-curvature="0"
       d="M 7.5425871,4.9998748 C 7.507012,4.9119517 7.4538419,5.1695824 7.4182666,5.0816592 7.1980736,4.3915653 7.1326775,3.2767918 7.2482267,2.521687 c 0,0 -0.6332506,0.2050641 -1.2331996,1.2899643 C 5.9080831,4.0044635 5.8326304,4.1097633 5.7700593,4.2177216 5.7492022,4.2537077 5.872919,3.849474 5.852062,3.88546 5.7584106,4.0138645 5.5044529,4.2031959 5.3868749,4.4475342 5.2928126,4.6430049 5.1915968,4.7429875 5.0997819,4.9926429 5.0709493,5.0672736 5.1507046,4.6808273 5.1245306,4.7425766 3.754925,6.8236319 3.17474,10.155455 3.3199173,10.037685 6.0324914,7.6965855 8.9081705,7.363388 8.9081705,7.363388 8.6313267,7.0779391 8.0500395,6.3804733 7.5425871,4.9998748 Z"
       id="path549-7" />
    <path
       style="display:inline;opacity:0.86693552;fill:url(#radialGradient6080)"
       inkscape:connector-curvature="0"
       d="M 14.006857,33.221253 C 10.765038,31.424067 7.1400609,29.010593 7.7693582,24.399604 8.5880395,18.350378 13.94265,20.126982 13.94265,20.126982 c -0.209174,0.03741 -0.724654,0.387652 -0.970034,0.860788 -0.266235,0.509123 -0.767627,1.506923 0.243027,2.85707 1.601754,2.13022 -4.2385941,4.269001 3.739853,10.186412 0.200378,0.135365 -1.99746,-0.277937 -2.948639,-0.809999 z"
       id="path557-2" />
    <path
       style="display:inline;opacity:0.32661288;fill:url(#radialGradient6074)"
       inkscape:connector-curvature="0"
       d="m 13.24396,30.072973 c 2.302097,1.079469 5.118056,1.230864 6.897379,0.483376 1.192282,-0.506025 2.920078,-1.264148 3.578873,-1.007313 -0.727697,-0.378496 -1.30164,-0.590958 -1.992337,-0.693216 -0.128814,-0.02659 -0.247407,-0.03763 -0.378881,-0.05133 -0.237185,-0.02209 -0.48725,-0.04684 -0.768397,-0.05114 -0.430819,0.0051 -0.945477,0.221208 -1.370568,0.133478 -0.02576,-0.0053 0.444523,-0.136573 0.405878,-0.144549 -0.232279,0.01921 -0.485004,0.0074 -0.755928,0.01858 -0.162553,0.0067 -0.322449,6.58e-4 -0.482344,-0.0055 -5.042436,-0.10055 -8.9415729,-3.658453 -8.9415729,-3.658453 -0.4973078,1.173236 1.2228199,3.771082 3.8078979,4.976104 z"
       id="path561-9" />
    <path
       style="display:inline;opacity:0.63129039;fill:url(#radialGradient6071)"
       inkscape:connector-curvature="0"
       d="m 14.192707,8.3672582 c 0,0 -0.433615,0.3394874 -0.777097,0.6977806 -0.39017,0.3888608 -0.734209,0.8142192 -0.734209,0.8142192 0,0 -1.242169,-1.3878233 -2.509823,-1.8807347 C 8.9039238,7.5056124 8.5095925,7.4636442 8.5095925,7.4636442 c 0,0 2.4252865,-0.6763578 5.6831145,0.903614 z"
       id="path577-6" />
  </g>
  <g
     inkscape:label="Symbol"
     inkscape:groupmode="layer"
     id="layer1"
     transform="translate(0,-1004.3622)"
     style="display:inline" />
  <g
     inkscape:groupmode="layer"
     id="layer4"
     inkscape:label="Inset"
     sodipodi:insensitive="true"
     style="display:inline">
    <path
       style="opacity:0.15;fill:#000000;fill-opacity:1;stroke:none"
       d="m 2,34 0,3 c 0,4.986 4.014,9 9,9 l 26,0 c 4.986,0 9,-4.014 9,-9 l 0,-3 c 0,4.986 -4.014,9 -9,9 L 11,43 C 6.014,43 2,38.986 2,34 z"
       id="rect3038-42"
       inkscape:connector-curvature="0" />
  </g>
  <g
     inkscape:groupmode="layer"
     id="layer7"
     inkscape:label="Baseshape"
     sodipodi:insensitive="true"
     style="display:none">
    <rect
       rx="9"
       ry="9"
       y="2"
       x="2"
       height="44"
       width="44"
       id="rect4169"
       style="fill:#abe1ad;fill-opacity:1;stroke:none;display:inline" />
  </g>
</svg>
