<?xml version="1.0" encoding="UTF-8" standalone="no"?>
<!-- Created with Inkscape (http://www.inkscape.org/) -->

<svg
   xmlns:dc="http://purl.org/dc/elements/1.1/"
   xmlns:cc="http://creativecommons.org/ns#"
   xmlns:rdf="http://www.w3.org/1999/02/22-rdf-syntax-ns#"
   xmlns:svg="http://www.w3.org/2000/svg"
   xmlns="http://www.w3.org/2000/svg"
   xmlns:xlink="http://www.w3.org/1999/xlink"
   xmlns:sodipodi="http://sodipodi.sourceforge.net/DTD/sodipodi-0.dtd"
   xmlns:inkscape="http://www.inkscape.org/namespaces/inkscape"
   width="48"
   height="48"
   id="svg4230"
   version="1.1"
   inkscape:version="0.92.2 (5c3e80d, 2017-08-06)"
   sodipodi:docname="qtox.svg"
   inkscape:export-filename="/home/uri/mouse.png"
   inkscape:export-xdpi="960"
   inkscape:export-ydpi="960">
  <defs
     id="defs4232">
    <linearGradient
       id="linearGradient9339">
      <stop
         style="stop-color:#f7f7f7;stop-opacity:1;"
         offset="0"
         id="stop9341" />
      <stop
         style="stop-color:#f7f7e5;stop-opacity:1;"
         offset="1"
         id="stop9343" />
    </linearGradient>
    <linearGradient
       id="linearGradient4243">
      <stop
         style="stop-color:#000000;stop-opacity:1;"
         offset="0"
         id="stop4245" />
      <stop
         style="stop-color:#000000;stop-opacity:0;"
         offset="1"
         id="stop4247" />
    </linearGradient>
    <radialGradient
       inkscape:collect="always"
       xlink:href="#linearGradient4243"
       id="radialGradient4274"
       gradientUnits="userSpaceOnUse"
       gradientTransform="matrix(1.0434782,0,0,0.1956518,-1.0434797,35.184809)"
       cx="24.000001"
       cy="42.499991"
       fx="24.000001"
       fy="42.499991"
       r="23" />
    <linearGradient
       inkscape:collect="always"
       xlink:href="#linearGradient3068"
       id="linearGradient3880"
       x1="26"
       y1="46"
       x2="26"
       y2="2"
       gradientUnits="userSpaceOnUse" />
    <linearGradient
       id="linearGradient3068">
      <stop
         style="stop-color:#d0d0d0;stop-opacity:1"
         offset="0"
         id="stop3070" />
      <stop
         style="stop-color:#ecf0f1;stop-opacity:1"
         offset="1"
         id="stop3072" />
    </linearGradient>
    <linearGradient
       inkscape:collect="always"
       xlink:href="#linearGradient3068-2"
       id="linearGradient3880-7"
       x1="26"
       y1="46"
       x2="26"
       y2="2"
       gradientUnits="userSpaceOnUse" />
    <linearGradient
       id="linearGradient3068-2">
      <stop
         style="stop-color:#3b0000;stop-opacity:1;"
         offset="0"
         id="stop3070-6" />
      <stop
         style="stop-color:#ca0000;stop-opacity:1;"
         offset="1"
         id="stop3072-9" />
    </linearGradient>
    <linearGradient
       gradientTransform="translate(-55,-117.99998)"
       y2="2"
       x2="26"
       y1="46"
       x1="26"
       gradientUnits="userSpaceOnUse"
       id="linearGradient7893"
       xlink:href="#linearGradient3068-2"
       inkscape:collect="always" />
    <linearGradient
       inkscape:collect="always"
       xlink:href="#linearGradient3068-9"
       id="linearGradient3880-8"
       x1="26"
       y1="46"
       x2="26"
       y2="2"
       gradientUnits="userSpaceOnUse" />
    <linearGradient
       id="linearGradient3068-9">
      <stop
         style="stop-color:#d54337;stop-opacity:1;"
         offset="0"
         id="stop3070-0" />
      <stop
         style="stop-color:#f36c4a;stop-opacity:1;"
         offset="1"
         id="stop3072-5" />
    </linearGradient>
    <linearGradient
       gradientTransform="translate(-67,-84)"
       y2="2"
       x2="26"
       y1="46"
       x1="26"
       gradientUnits="userSpaceOnUse"
       id="linearGradient3058"
       xlink:href="#linearGradient3068-9"
       inkscape:collect="always" />
    <linearGradient
       gradientTransform="translate(95,-60)"
       inkscape:collect="always"
       xlink:href="#linearGradient9339-0"
       id="linearGradient9345-6"
       x1="23"
       y1="7"
       x2="23"
       y2="37"
       gradientUnits="userSpaceOnUse" />
    <linearGradient
       id="linearGradient9339-0">
      <stop
         style="stop-color:#f7f7f7;stop-opacity:1;"
         offset="0"
         id="stop9341-9" />
      <stop
         style="stop-color:#f7f7e5;stop-opacity:1;"
         offset="1"
         id="stop9343-5" />
    </linearGradient>
    <linearGradient
       inkscape:collect="always"
       xlink:href="#linearGradient3068-3"
       id="linearGradient3880-4"
       x1="26"
       y1="46"
       x2="26"
       y2="2"
       gradientUnits="userSpaceOnUse" />
    <linearGradient
       id="linearGradient3068-3">
      <stop
         style="stop-color:#d54337;stop-opacity:1;"
         offset="0"
         id="stop3070-8" />
      <stop
         style="stop-color:#f36c4a;stop-opacity:1;"
         offset="1"
         id="stop3072-90" />
    </linearGradient>
    <linearGradient
       gradientTransform="translate(95,-60)"
       y2="2"
       x2="26"
       y1="46"
       x1="26"
       gradientUnits="userSpaceOnUse"
       id="linearGradient9369"
       xlink:href="#linearGradient3068-3"
       inkscape:collect="always" />
    <linearGradient
       gradientTransform="translate(95,-60)"
       inkscape:collect="always"
       xlink:href="#linearGradient9339-0-9"
       id="linearGradient9345-6-8"
       x1="23"
       y1="7"
       x2="23"
       y2="37"
       gradientUnits="userSpaceOnUse" />
    <linearGradient
       id="linearGradient9339-0-9">
      <stop
         style="stop-color:#f7f7f7;stop-opacity:1;"
         offset="0"
         id="stop9341-9-0" />
      <stop
         style="stop-color:#f7f7f7;stop-opacity:0.10738255;"
         offset="1"
         id="stop9343-5-8" />
    </linearGradient>
    <radialGradient
       inkscape:collect="always"
       xlink:href="#linearGradient9339-0-9"
       id="radialGradient9436"
       cx="129"
       cy="-40.1875"
       fx="129"
       fy="-40.1875"
       r="10.5"
       gradientTransform="matrix(1.2354167,0,0,1.688988,-40.870987,30.641834)"
       gradientUnits="userSpaceOnUse" />
    <radialGradient
       inkscape:collect="always"
       xlink:href="#linearGradient9339-0-9-9"
       id="radialGradient9436-1"
       cx="129"
       cy="-40.1875"
       fx="129"
       fy="-40.1875"
       r="10.5"
       gradientTransform="matrix(1.2354167,0,0,1.688988,-40.870987,30.641834)"
       gradientUnits="userSpaceOnUse" />
    <linearGradient
       id="linearGradient9339-0-9-9">
      <stop
         style="stop-color:#f7f7f7;stop-opacity:1;"
         offset="0"
         id="stop9341-9-0-8" />
      <stop
         style="stop-color:#f7f7f7;stop-opacity:0.10738255;"
         offset="1"
         id="stop9343-5-8-6" />
    </linearGradient>
    <radialGradient
       r="10.5"
       fy="-40.1875"
       fx="129"
       cy="-40.1875"
       cx="129"
       gradientTransform="matrix(1.2345373,0.04660668,-0.06371787,1.6877857,-43.565969,24.128129)"
       gradientUnits="userSpaceOnUse"
       id="radialGradient9453"
       xlink:href="#linearGradient9339-0-9-9"
       inkscape:collect="always" />
    <radialGradient
       r="10.5"
       fy="-40.1875"
       fx="129"
       cy="-40.1875"
       cx="129"
       gradientTransform="matrix(1.2345373,0.04660668,-0.06371787,1.6877857,-43.565969,24.128129)"
       gradientUnits="userSpaceOnUse"
       id="radialGradient9453-6"
       xlink:href="#linearGradient9339-0-9-9-1"
       inkscape:collect="always" />
    <linearGradient
       id="linearGradient9339-0-9-9-1">
      <stop
         style="stop-color:#f7f7f7;stop-opacity:0.65882355;"
         offset="0"
         id="stop9341-9-0-8-6" />
      <stop
         style="stop-color:#f7f7f7;stop-opacity:0.10738255;"
         offset="1"
         id="stop9343-5-8-6-1" />
    </linearGradient>
    <radialGradient
       r="10.5"
       fy="-40.1875"
       fx="129"
       cy="-40.1875"
       cx="129"
       gradientTransform="matrix(1.2185507,0.20344233,-0.27813421,1.6659297,-55.380558,2.9293677)"
       gradientUnits="userSpaceOnUse"
       id="radialGradient9487"
       xlink:href="#linearGradient9339-0-9-9-1"
       inkscape:collect="always" />
    <linearGradient
       gradientTransform="translate(95,-60)"
       inkscape:collect="always"
       xlink:href="#linearGradient9339-0-7"
       id="linearGradient9345-6-2"
       x1="23"
       y1="7"
       x2="23"
       y2="37"
       gradientUnits="userSpaceOnUse" />
    <linearGradient
       id="linearGradient9339-0-7">
      <stop
         style="stop-color:#f7f7f7;stop-opacity:1;"
         offset="0"
         id="stop9341-9-6" />
      <stop
         style="stop-color:#f7f7e5;stop-opacity:1;"
         offset="1"
         id="stop9343-5-80" />
    </linearGradient>
    <linearGradient
       gradientTransform="translate(95,-60)"
       inkscape:collect="always"
       xlink:href="#linearGradient9339-0-1"
       id="linearGradient9345-6-4"
       x1="23"
       y1="7"
       x2="23"
       y2="37"
       gradientUnits="userSpaceOnUse" />
    <linearGradient
       id="linearGradient9339-0-1">
      <stop
         style="stop-color:#f7f7f7;stop-opacity:1;"
         offset="0"
         id="stop9341-9-65" />
      <stop
         style="stop-color:#f7f7e5;stop-opacity:1;"
         offset="1"
         id="stop9343-5-3" />
    </linearGradient>
    <linearGradient
       y2="37"
       x2="23"
       y1="7"
       x1="23"
       gradientTransform="translate(95.097541,-59.964959)"
       gradientUnits="userSpaceOnUse"
       id="linearGradient9573"
       xlink:href="#linearGradient9339-0-1"
       inkscape:collect="always" />
  </defs>
  <sodipodi:namedview
     id="base"
     pagecolor="#ffffff"
     bordercolor="#666666"
     borderopacity="1.0"
     inkscape:pageopacity="0.0"
     inkscape:pageshadow="2"
     inkscape:zoom="4"
     inkscape:cx="-87.317578"
     inkscape:cy="14.091282"
     inkscape:document-units="px"
     inkscape:current-layer="layer2"
     showgrid="false"
     inkscape:showpageshadow="false"
     borderlayer="true"
     inkscape:window-width="1920"
     inkscape:window-height="1012"
     inkscape:window-x="0"
     inkscape:window-y="32"
     inkscape:window-maximized="1"
     showguides="false"
     inkscape:guide-bbox="true"
     objecttolerance="10000"
     guidetolerance="10000">
    <inkscape:grid
       type="xygrid"
       id="grid4162"
       empspacing="5"
       visible="true"
       enabled="true"
       snapvisiblegridlinesonly="true" />
    <sodipodi:guide
       position="1.0000013,47.000017"
       orientation="46,0"
       id="guide4163"
       inkscape:locked="false" />
    <sodipodi:guide
       position="1.0000013,1.0000174"
       orientation="0,45.999999"
       id="guide4165"
       inkscape:locked="false" />
    <sodipodi:guide
       position="47,1.0000174"
       orientation="-46,0"
       id="guide4167"
       inkscape:locked="false" />
    <sodipodi:guide
       position="47,47.000017"
       orientation="0,-45.999999"
       id="guide4169"
       inkscape:locked="false" />
    <sodipodi:guide
       position="2.0000007,46.000017"
       orientation="44,0"
       id="guide4173"
       inkscape:locked="false" />
    <sodipodi:guide
       position="2.0000007,2.0000174"
       orientation="0,43.999999"
       id="guide4175"
       inkscape:locked="false" />
    <sodipodi:guide
       position="46,2.0000174"
       orientation="-44,0"
       id="guide4177"
       inkscape:locked="false" />
    <sodipodi:guide
       position="46,46.000017"
       orientation="0,-43.999999"
       id="guide4179"
       inkscape:locked="false" />
    <sodipodi:guide
       position="40,40"
       orientation="-42,0"
       id="guide4187"
       inkscape:locked="false" />
    <sodipodi:guide
       position="45,45.000017"
       orientation="0,-42"
       id="guide4189"
       inkscape:locked="false" />
    <sodipodi:guide
       position="3,3.0000174"
       orientation="0,42"
       id="guide4195"
       inkscape:locked="false" />
    <sodipodi:guide
       position="8,41"
       orientation="-42,0"
       id="guide4197"
       inkscape:locked="false" />
    <sodipodi:guide
       position="45,45.000017"
       orientation="0,-42"
       id="guide4199"
       inkscape:locked="false" />
    <sodipodi:guide
       position="3,3.0000174"
       orientation="0,42"
       id="guide4205"
       inkscape:locked="false" />
    <sodipodi:guide
       position="26,9"
       orientation="0,-42"
       id="guide4209"
       inkscape:locked="false" />
    <sodipodi:guide
       position="6,42.000017"
       orientation="33.000017,0"
       id="guide4529"
       inkscape:locked="false" />
    <sodipodi:guide
       position="17,10"
       orientation="0,36"
       id="guide4531"
       inkscape:locked="false" />
    <sodipodi:guide
       position="42,9"
       orientation="-33.000017,0"
       id="guide4533"
       inkscape:locked="false" />
    <sodipodi:guide
       position="42,42.000017"
       orientation="0,-36"
       id="guide4535"
       inkscape:locked="false" />
  </sodipodi:namedview>
  <metadata
     id="metadata4235">
    <rdf:RDF>
      <cc:Work
         rdf:about="">
        <dc:format>image/svg+xml</dc:format>
        <dc:type
           rdf:resource="http://purl.org/dc/dcmitype/StillImage" />
        <dc:title />
      </cc:Work>
    </rdf:RDF>
  </metadata>
  <g
     inkscape:groupmode="layer"
     id="layer3"
     inkscape:label="Fake blur shadow"
     style="display:inline"
     sodipodi:insensitive="true">
    <path
       style="opacity:0.06000001;fill:#000000;fill-opacity:1;stroke:none"
       d="M 10,1 C 5.014,1 1,5.014 1,10 l 0,28 c 0,4.986 4.014,9 9,9 l 28,0 c 4.986,0 9,-4.014 9,-9 L 47,10 C 47,5.014 42.986,1 38,1 L 10,1 z m 0.5,0.5 27,0 c 4.986,0 9,4.014 9,9 l 0,27 c 0,4.986 -4.014,9 -9,9 l -27,0 c -4.986,0 -9,-4.014 -9,-9 l 0,-27 c 0,-4.986 4.014,-9 9,-9 z"
       id="rect3829"
       inkscape:connector-curvature="0" />
    <path
       style="opacity:0.12000002;fill:#000000;fill-opacity:1;stroke:none"
       d="m 10.5,1.5 c -4.986,0 -9,4.014 -9,9 l 0,27 c 0,4.986 4.014,9 9,9 l 27,0 c 4.986,0 9,-4.014 9,-9 l 0,-27 c 0,-4.986 -4.014,-9 -9,-9 l -27,0 z m 0.25,0.25 26.5,0 c 4.986,0 9,4.014 9,9 l 0,26.5 c 0,4.986 -4.014,9 -9,9 l -26.5,0 c -4.986,0 -9,-4.014 -9,-9 l 0,-26.5 c 0,-4.986 4.014,-9 9,-9 z"
       id="rect3827"
       inkscape:connector-curvature="0" />
    <rect
       style="opacity:0.23999999;fill:#000000;fill-opacity:1;stroke:none"
       id="rect3038-4"
       width="44.5"
       height="44.5"
       x="1.75"
       y="1.75"
       ry="9"
       rx="9" />
  </g>
  <g
     inkscape:groupmode="layer"
     id="layer6"
     inkscape:label="Blob"
     style="display:inline"
     sodipodi:insensitive="true">
    <path
       style="opacity:0.3;fill:url(#radialGradient4274);fill-opacity:1;stroke:none"
       d="M 1.03125,39 C 1.5192036,43.518898 5.3471961,47 10,47 l 28,0 c 4.652804,0 8.480796,-3.481102 8.96875,-8 l -45.9375,0 z"
       id="rect4241"
       inkscape:connector-curvature="0" />
  </g>
  <g
     inkscape:groupmode="layer"
     id="layer2"
     inkscape:label="Baseplate"
     style="display:inline">
    <rect
       style="fill:url(#linearGradient3880);fill-opacity:1.0;stroke:none"
       id="rect3038"
       width="44"
       height="44"
       x="2"
       y="1.9999826"
       ry="9"
       rx="9" />
    <path
       inkscape:connector-curvature="0"
       d="m 31.708895,18.578115 c 0,-1.280441 0.02126,-2.884205 -0.0095,-4.164374 -0.0135,-0.551533 -0.07701,-1.113998 -0.214384,-1.649132 C 30.501926,8.9385897 26.607667,6.5591813 22.518568,7.2629463 18.898756,7.8858123 16.204013,10.957505 16.204013,14.46075 v 3.789397 0.319769 c -0.136504,0 -0.228178,-2.73e-4 -0.320714,0 h -3.299672 c -0.796899,0 -1.4435,0.614667 -1.4435,1.37282 v 15.544317 c 0,0.757879 0.646601,1.37282 1.4435,1.37282 h 22.83246 c 0.797473,0 1.443786,-0.614941 1.443786,-1.37282 V 19.942736 c 0,-0.758153 -0.646313,-1.37282 -1.443786,-1.37282 l -3.707175,0.0082 z m -5.594384,14.558227 h -4.24601 c -0.667291,0 -1.207848,-0.52311 -1.207848,-1.168114 0,-0.01722 0.002,-0.0347 0.0026,-0.05193 0,0 -0.0018,-0.279046 -0.0023,-0.557819 -2.87e-4,-0.308563 0.14685,-1.172212 0.592286,-1.796718 0.471587,-0.660855 1.107841,-1.090493 1.798124,-1.283721 -0.909839,-0.352839 -1.550692,-1.202003 -1.550692,-2.193286 0,-1.308866 1.115026,-2.369022 2.490705,-2.369022 1.376252,0 2.490704,1.060156 2.490704,2.369022 0,1.016428 -0.673614,1.883356 -1.61995,2.21925 0.670165,0.2058 1.303834,0.632159 1.802721,1.286454 0.465841,0.61084 0.656659,1.460278 0.656659,1.768295 v 0.558365 c -0.0018,0.01695 0,0.03416 0,0.05165 2.87e-4,0.644456 -0.54027,1.167566 -1.206986,1.167566 m 2.779517,-16.948839 c -0.448884,1.260217 -1.298946,2.269811 -2.186944,3.255628 -0.685685,0.760613 -1.491492,1.400697 -2.349603,1.980654 -0.04138,0.02814 -0.08564,0.05139 -0.196853,0.116701 0.511821,-0.840691 0.924494,-1.639293 1.044044,-2.570175 -1.216759,0.273853 -2.364258,0.154144 -3.47526,-0.31157 -1.971988,-0.826207 -3.150524,-2.628664 -2.949361,-4.663432 0.164669,-1.674549 1.13227,-2.881472 2.678651,-3.660942 2.490703,-1.2552978 5.671113,-0.4523228 7.095071,1.780865 0.829661,1.300393 0.842593,2.662281 0.340255,4.072271"
       id="path5"
       style="opacity:1;fill:#4d4d4d;fill-opacity:1;stroke:#4d4d4d;stroke-width:0.28025401;stroke-opacity:1"
       sodipodi:nodetypes="ccccscccsssssssccccssccccsssccsccccccccccccc" />
  </g>
  <g
     inkscape:label="Symbol"
     inkscape:groupmode="layer"
     id="layer1"
     transform="translate(0,-1004.3622)"
     style="display:inline" />
  <g
     inkscape:groupmode="layer"
     id="layer4"
     inkscape:label="Inset"
     sodipodi:insensitive="true"
     style="display:inline">
    <path
       style="opacity:0.15;fill:#000000;fill-opacity:1;stroke:none"
       d="m 2,34 0,3 c 0,4.986 4.014,9 9,9 l 26,0 c 4.986,0 9,-4.014 9,-9 l 0,-3 c 0,4.986 -4.014,9 -9,9 L 11,43 C 6.014,43 2,38.986 2,34 z"
       id="rect3038-42"
       inkscape:connector-curvature="0" />
  </g>
  <g
     inkscape:groupmode="layer"
     id="layer7"
     inkscape:label="Baseshape"
     sodipodi:insensitive="true"
     style="display:none">
    <rect
       rx="9"
       ry="9"
       y="2"
       x="2"
       height="44"
       width="44"
       id="rect4169"
       style="fill:#abe1ad;fill-opacity:1;stroke:none;display:inline" />
  </g>
</svg>
