<?xml version="1.0" encoding="UTF-8" standalone="no"?>
<!-- Created with Inkscape (http://www.inkscape.org/) -->

<svg
   xmlns:dc="http://purl.org/dc/elements/1.1/"
   xmlns:cc="http://creativecommons.org/ns#"
   xmlns:rdf="http://www.w3.org/1999/02/22-rdf-syntax-ns#"
   xmlns:svg="http://www.w3.org/2000/svg"
   xmlns="http://www.w3.org/2000/svg"
   xmlns:xlink="http://www.w3.org/1999/xlink"
   xmlns:sodipodi="http://sodipodi.sourceforge.net/DTD/sodipodi-0.dtd"
   xmlns:inkscape="http://www.inkscape.org/namespaces/inkscape"
   width="48"
   height="48"
   id="svg4230"
   version="1.1"
   inkscape:version="0.92.2 (5c3e80d, 2017-08-06)"
   sodipodi:docname="wire-desktop.svg"
   inkscape:export-filename="/home/uri/mouse.png"
   inkscape:export-xdpi="960"
   inkscape:export-ydpi="960">
  <defs
     id="defs4232">
    <linearGradient
       id="linearGradient9339">
      <stop
         style="stop-color:#f7f7f7;stop-opacity:1;"
         offset="0"
         id="stop9341" />
      <stop
         style="stop-color:#f7f7e5;stop-opacity:1;"
         offset="1"
         id="stop9343" />
    </linearGradient>
    <linearGradient
       id="linearGradient4243">
      <stop
         style="stop-color:#000000;stop-opacity:1;"
         offset="0"
         id="stop4245" />
      <stop
         style="stop-color:#000000;stop-opacity:0;"
         offset="1"
         id="stop4247" />
    </linearGradient>
    <radialGradient
       inkscape:collect="always"
       xlink:href="#linearGradient4243"
       id="radialGradient4274"
       gradientUnits="userSpaceOnUse"
       gradientTransform="matrix(1.0434782,0,0,0.1956518,-1.0434797,35.184809)"
       cx="24.000001"
       cy="42.499991"
       fx="24.000001"
       fy="42.499991"
       r="23" />
    <linearGradient
       inkscape:collect="always"
       xlink:href="#linearGradient3068"
       id="linearGradient3880"
       x1="26"
       y1="46"
       x2="26"
       y2="2"
       gradientUnits="userSpaceOnUse" />
    <linearGradient
       id="linearGradient3068">
      <stop
         style="stop-color:#f8f8f8;stop-opacity:1"
         offset="0"
         id="stop3070" />
      <stop
         style="stop-color:#fffff1;stop-opacity:1"
         offset="1"
         id="stop3072" />
    </linearGradient>
    <linearGradient
       inkscape:collect="always"
       xlink:href="#linearGradient3068-2"
       id="linearGradient3880-7"
       x1="26"
       y1="46"
       x2="26"
       y2="2"
       gradientUnits="userSpaceOnUse" />
    <linearGradient
       id="linearGradient3068-2">
      <stop
         style="stop-color:#3b0000;stop-opacity:1;"
         offset="0"
         id="stop3070-6" />
      <stop
         style="stop-color:#ca0000;stop-opacity:1;"
         offset="1"
         id="stop3072-9" />
    </linearGradient>
    <linearGradient
       gradientTransform="translate(-55,-117.99998)"
       y2="2"
       x2="26"
       y1="46"
       x1="26"
       gradientUnits="userSpaceOnUse"
       id="linearGradient7893"
       xlink:href="#linearGradient3068-2"
       inkscape:collect="always" />
    <linearGradient
       inkscape:collect="always"
       xlink:href="#linearGradient3068-9"
       id="linearGradient3880-8"
       x1="26"
       y1="46"
       x2="26"
       y2="2"
       gradientUnits="userSpaceOnUse" />
    <linearGradient
       id="linearGradient3068-9">
      <stop
         style="stop-color:#d54337;stop-opacity:1;"
         offset="0"
         id="stop3070-0" />
      <stop
         style="stop-color:#f36c4a;stop-opacity:1;"
         offset="1"
         id="stop3072-5" />
    </linearGradient>
    <linearGradient
       gradientTransform="translate(-67,-84)"
       y2="2"
       x2="26"
       y1="46"
       x1="26"
       gradientUnits="userSpaceOnUse"
       id="linearGradient3058"
       xlink:href="#linearGradient3068-9"
       inkscape:collect="always" />
    <linearGradient
       gradientTransform="translate(95,-60)"
       inkscape:collect="always"
       xlink:href="#linearGradient9339-0"
       id="linearGradient9345-6"
       x1="23"
       y1="7"
       x2="23"
       y2="37"
       gradientUnits="userSpaceOnUse" />
    <linearGradient
       id="linearGradient9339-0">
      <stop
         style="stop-color:#f7f7f7;stop-opacity:1;"
         offset="0"
         id="stop9341-9" />
      <stop
         style="stop-color:#f7f7e5;stop-opacity:1;"
         offset="1"
         id="stop9343-5" />
    </linearGradient>
    <linearGradient
       inkscape:collect="always"
       xlink:href="#linearGradient3068-3"
       id="linearGradient3880-4"
       x1="26"
       y1="46"
       x2="26"
       y2="2"
       gradientUnits="userSpaceOnUse" />
    <linearGradient
       id="linearGradient3068-3">
      <stop
         style="stop-color:#d54337;stop-opacity:1;"
         offset="0"
         id="stop3070-8" />
      <stop
         style="stop-color:#f36c4a;stop-opacity:1;"
         offset="1"
         id="stop3072-90" />
    </linearGradient>
    <linearGradient
       gradientTransform="translate(95,-60)"
       y2="2"
       x2="26"
       y1="46"
       x1="26"
       gradientUnits="userSpaceOnUse"
       id="linearGradient9369"
       xlink:href="#linearGradient3068-3"
       inkscape:collect="always" />
    <linearGradient
       gradientTransform="translate(95,-60)"
       inkscape:collect="always"
       xlink:href="#linearGradient9339-0-9"
       id="linearGradient9345-6-8"
       x1="23"
       y1="7"
       x2="23"
       y2="37"
       gradientUnits="userSpaceOnUse" />
    <linearGradient
       id="linearGradient9339-0-9">
      <stop
         style="stop-color:#f7f7f7;stop-opacity:1;"
         offset="0"
         id="stop9341-9-0" />
      <stop
         style="stop-color:#f7f7f7;stop-opacity:0.10738255;"
         offset="1"
         id="stop9343-5-8" />
    </linearGradient>
    <radialGradient
       inkscape:collect="always"
       xlink:href="#linearGradient9339-0-9"
       id="radialGradient9436"
       cx="129"
       cy="-40.1875"
       fx="129"
       fy="-40.1875"
       r="10.5"
       gradientTransform="matrix(1.2354167,0,0,1.688988,-40.870987,30.641834)"
       gradientUnits="userSpaceOnUse" />
    <radialGradient
       inkscape:collect="always"
       xlink:href="#linearGradient9339-0-9-9"
       id="radialGradient9436-1"
       cx="129"
       cy="-40.1875"
       fx="129"
       fy="-40.1875"
       r="10.5"
       gradientTransform="matrix(1.2354167,0,0,1.688988,-40.870987,30.641834)"
       gradientUnits="userSpaceOnUse" />
    <linearGradient
       id="linearGradient9339-0-9-9">
      <stop
         style="stop-color:#f7f7f7;stop-opacity:1;"
         offset="0"
         id="stop9341-9-0-8" />
      <stop
         style="stop-color:#f7f7f7;stop-opacity:0.10738255;"
         offset="1"
         id="stop9343-5-8-6" />
    </linearGradient>
    <radialGradient
       r="10.5"
       fy="-40.1875"
       fx="129"
       cy="-40.1875"
       cx="129"
       gradientTransform="matrix(1.2345373,0.04660668,-0.06371787,1.6877857,-43.565969,24.128129)"
       gradientUnits="userSpaceOnUse"
       id="radialGradient9453"
       xlink:href="#linearGradient9339-0-9-9"
       inkscape:collect="always" />
    <radialGradient
       r="10.5"
       fy="-40.1875"
       fx="129"
       cy="-40.1875"
       cx="129"
       gradientTransform="matrix(1.2345373,0.04660668,-0.06371787,1.6877857,-43.565969,24.128129)"
       gradientUnits="userSpaceOnUse"
       id="radialGradient9453-6"
       xlink:href="#linearGradient9339-0-9-9-1"
       inkscape:collect="always" />
    <linearGradient
       id="linearGradient9339-0-9-9-1">
      <stop
         style="stop-color:#f7f7f7;stop-opacity:0.65882355;"
         offset="0"
         id="stop9341-9-0-8-6" />
      <stop
         style="stop-color:#f7f7f7;stop-opacity:0.10738255;"
         offset="1"
         id="stop9343-5-8-6-1" />
    </linearGradient>
    <radialGradient
       r="10.5"
       fy="-40.1875"
       fx="129"
       cy="-40.1875"
       cx="129"
       gradientTransform="matrix(1.2185507,0.20344233,-0.27813421,1.6659297,-55.380558,2.9293677)"
       gradientUnits="userSpaceOnUse"
       id="radialGradient9487"
       xlink:href="#linearGradient9339-0-9-9-1"
       inkscape:collect="always" />
    <linearGradient
       gradientTransform="translate(95,-60)"
       inkscape:collect="always"
       xlink:href="#linearGradient9339-0-7"
       id="linearGradient9345-6-2"
       x1="23"
       y1="7"
       x2="23"
       y2="37"
       gradientUnits="userSpaceOnUse" />
    <linearGradient
       id="linearGradient9339-0-7">
      <stop
         style="stop-color:#f7f7f7;stop-opacity:1;"
         offset="0"
         id="stop9341-9-6" />
      <stop
         style="stop-color:#f7f7e5;stop-opacity:1;"
         offset="1"
         id="stop9343-5-80" />
    </linearGradient>
    <linearGradient
       gradientTransform="translate(95,-60)"
       inkscape:collect="always"
       xlink:href="#linearGradient9339-0-1"
       id="linearGradient9345-6-4"
       x1="23"
       y1="7"
       x2="23"
       y2="37"
       gradientUnits="userSpaceOnUse" />
    <linearGradient
       id="linearGradient9339-0-1">
      <stop
         style="stop-color:#f7f7f7;stop-opacity:1;"
         offset="0"
         id="stop9341-9-65" />
      <stop
         style="stop-color:#f7f7e5;stop-opacity:1;"
         offset="1"
         id="stop9343-5-3" />
    </linearGradient>
    <linearGradient
       y2="37"
       x2="23"
       y1="7"
       x1="23"
       gradientTransform="translate(95.097541,-59.964959)"
       gradientUnits="userSpaceOnUse"
       id="linearGradient9573"
       xlink:href="#linearGradient9339-0-1"
       inkscape:collect="always" />
  </defs>
  <sodipodi:namedview
     id="base"
     pagecolor="#ffffff"
     bordercolor="#666666"
     borderopacity="1.0"
     inkscape:pageopacity="0.0"
     inkscape:pageshadow="2"
     inkscape:zoom="16"
     inkscape:cx="17.969848"
     inkscape:cy="23.400132"
     inkscape:document-units="px"
     inkscape:current-layer="layer2"
     showgrid="true"
     inkscape:showpageshadow="false"
     borderlayer="true"
     inkscape:window-width="1920"
     inkscape:window-height="1012"
     inkscape:window-x="0"
     inkscape:window-y="32"
     inkscape:window-maximized="1"
     showguides="true"
     inkscape:guide-bbox="true"
     objecttolerance="10000"
     guidetolerance="10000">
    <inkscape:grid
       type="xygrid"
       id="grid4162"
       empspacing="5"
       visible="true"
       enabled="true"
       snapvisiblegridlinesonly="true" />
    <sodipodi:guide
       position="1.0000013,47.000017"
       orientation="46,0"
       id="guide4163"
       inkscape:locked="false" />
    <sodipodi:guide
       position="1.0000013,1.0000174"
       orientation="0,45.999999"
       id="guide4165"
       inkscape:locked="false" />
    <sodipodi:guide
       position="47,1.0000174"
       orientation="-46,0"
       id="guide4167"
       inkscape:locked="false" />
    <sodipodi:guide
       position="47,47.000017"
       orientation="0,-45.999999"
       id="guide4169"
       inkscape:locked="false" />
    <sodipodi:guide
       position="2.0000007,46.000017"
       orientation="44,0"
       id="guide4173"
       inkscape:locked="false" />
    <sodipodi:guide
       position="2.0000007,2.0000174"
       orientation="0,43.999999"
       id="guide4175"
       inkscape:locked="false" />
    <sodipodi:guide
       position="46,2.0000174"
       orientation="-44,0"
       id="guide4177"
       inkscape:locked="false" />
    <sodipodi:guide
       position="46,46.000017"
       orientation="0,-43.999999"
       id="guide4179"
       inkscape:locked="false" />
    <sodipodi:guide
       position="40,40"
       orientation="-42,0"
       id="guide4187"
       inkscape:locked="false" />
    <sodipodi:guide
       position="45,45.000017"
       orientation="0,-42"
       id="guide4189"
       inkscape:locked="false" />
    <sodipodi:guide
       position="3,3.0000174"
       orientation="0,42"
       id="guide4195"
       inkscape:locked="false" />
    <sodipodi:guide
       position="8,41"
       orientation="-42,0"
       id="guide4197"
       inkscape:locked="false" />
    <sodipodi:guide
       position="45,45.000017"
       orientation="0,-42"
       id="guide4199"
       inkscape:locked="false" />
    <sodipodi:guide
       position="3,3.0000174"
       orientation="0,42"
       id="guide4205"
       inkscape:locked="false" />
    <sodipodi:guide
       position="26,9"
       orientation="0,-42"
       id="guide4209"
       inkscape:locked="false" />
    <sodipodi:guide
       position="6,42.000017"
       orientation="33.000017,0"
       id="guide4529"
       inkscape:locked="false" />
    <sodipodi:guide
       position="17,10"
       orientation="0,36"
       id="guide4531"
       inkscape:locked="false" />
    <sodipodi:guide
       position="42,9"
       orientation="-33.000017,0"
       id="guide4533"
       inkscape:locked="false" />
    <sodipodi:guide
       position="42,42.000017"
       orientation="0,-36"
       id="guide4535"
       inkscape:locked="false" />
  </sodipodi:namedview>
  <metadata
     id="metadata4235">
    <rdf:RDF>
      <cc:Work
         rdf:about="">
        <dc:format>image/svg+xml</dc:format>
        <dc:type
           rdf:resource="http://purl.org/dc/dcmitype/StillImage" />
        <dc:title />
      </cc:Work>
    </rdf:RDF>
  </metadata>
  <g
     inkscape:groupmode="layer"
     id="layer3"
     inkscape:label="Fake blur shadow"
     style="display:inline"
     sodipodi:insensitive="true">
    <path
       style="opacity:0.06000001;fill:#000000;fill-opacity:1;stroke:none"
       d="M 10,1 C 5.014,1 1,5.014 1,10 l 0,28 c 0,4.986 4.014,9 9,9 l 28,0 c 4.986,0 9,-4.014 9,-9 L 47,10 C 47,5.014 42.986,1 38,1 L 10,1 z m 0.5,0.5 27,0 c 4.986,0 9,4.014 9,9 l 0,27 c 0,4.986 -4.014,9 -9,9 l -27,0 c -4.986,0 -9,-4.014 -9,-9 l 0,-27 c 0,-4.986 4.014,-9 9,-9 z"
       id="rect3829"
       inkscape:connector-curvature="0" />
    <path
       style="opacity:0.12000002;fill:#000000;fill-opacity:1;stroke:none"
       d="m 10.5,1.5 c -4.986,0 -9,4.014 -9,9 l 0,27 c 0,4.986 4.014,9 9,9 l 27,0 c 4.986,0 9,-4.014 9,-9 l 0,-27 c 0,-4.986 -4.014,-9 -9,-9 l -27,0 z m 0.25,0.25 26.5,0 c 4.986,0 9,4.014 9,9 l 0,26.5 c 0,4.986 -4.014,9 -9,9 l -26.5,0 c -4.986,0 -9,-4.014 -9,-9 l 0,-26.5 c 0,-4.986 4.014,-9 9,-9 z"
       id="rect3827"
       inkscape:connector-curvature="0" />
    <rect
       style="opacity:0.23999999;fill:#000000;fill-opacity:1;stroke:none"
       id="rect3038-4"
       width="44.5"
       height="44.5"
       x="1.75"
       y="1.75"
       ry="9"
       rx="9" />
  </g>
  <g
     inkscape:groupmode="layer"
     id="layer6"
     inkscape:label="Blob"
     style="display:inline"
     sodipodi:insensitive="true">
    <path
       style="opacity:0.3;fill:url(#radialGradient4274);fill-opacity:1;stroke:none"
       d="M 1.03125,39 C 1.5192036,43.518898 5.3471961,47 10,47 l 28,0 c 4.652804,0 8.480796,-3.481102 8.96875,-8 l -45.9375,0 z"
       id="rect4241"
       inkscape:connector-curvature="0" />
  </g>
  <g
     inkscape:groupmode="layer"
     id="layer2"
     inkscape:label="Baseplate"
     style="display:inline">
    <rect
       style="fill:url(#linearGradient3880);fill-opacity:1.0;stroke:none"
       id="rect3038"
       width="44"
       height="44"
       x="2"
       y="1.9999826"
       ry="9"
       rx="9" />
    <path
       inkscape:connector-curvature="0"
       id="path4180-3"
       d="M 16.52605,35.820978 C 14.01934,35.314963 11.32505,33.214229 10.16171,30.858711 9.14702,28.804195 9,27.401917 9,19.778705 c 0,-6.186988 0.0537,-7.231383 0.38961,-7.573959 0.49453,-0.504395 0.95766,-0.504395 1.45218,0 0.33702,0.34374 0.38961,1.429986 0.38961,8.047122 0,6.490384 0.0629,7.838588 0.4153,8.895948 0.54447,1.633873 2.56931,3.684864 4.19601,4.250193 1.96172,0.68176 4.52804,0.482268 5.94068,-0.461797 l 0.57379,-0.38346 -0.73074,-1.458673 C 20.5278,28.900987 20.36633,27.403601 20.45181,20.201444 20.52301,14.202523 20.56765,13.636729 21.03357,12.827842 21.73544,11.609289 22.9297,11 24.12397,11 c 1.19426,0 2.38853,0.609289 3.0904,1.827842 0.47567,0.82583 0.50464,1.289916 0.50464,8.083209 0,7.828583 -0.10853,8.605294 -1.49268,10.682901 l -0.62175,0.933238 0.59291,0.396242 c 1.44331,0.964557 3.98786,1.15989 6.00004,0.460593 1.63839,-0.569393 3.5972,-2.567287 4.15546,-4.238356 0.35344,-1.057997 0.41561,-2.408581 0.41561,-9.02942 0,-7.438314 0.0214,-7.796999 0.47956,-8.047097 0.65154,-0.355651 0.90535,-0.330388 1.36223,0.135594 C 38.94586,12.546918 39,13.577126 39,19.618252 c 0,3.980974 -0.11685,7.660861 -0.27011,8.506479 -0.56042,3.092063 -2.25262,5.41719 -4.94089,6.788901 -2.82614,1.442066 -5.45959,1.448325 -8.24848,0.0196 -0.73787,-0.378008 -1.15025,-0.568181 -1.52054,-0.578173 -0.37029,-0.01 -0.6985,0.1602 -1.26802,0.502931 -1.70284,1.024745 -4.09051,1.394053 -6.22591,0.962989 z m 8.47467,-6.375234 c 0.59696,-1.307789 0.60605,-1.433089 0.60843,-8.388352 0.002,-6.217434 -0.0466,-7.115967 -0.40791,-7.52318 -0.25545,-0.287904 -0.63362,-0.437078 -1.02277,-0.44517 -0.38916,-0.0081 -0.7893,0.124872 -1.0887,0.401245 -0.41887,0.386628 -0.45322,0.959629 -0.45098,7.52318 0.002,7.001853 0.0112,7.123868 0.60842,8.432277 0.33331,0.730191 0.72785,1.32762 0.87676,1.32762 0.14891,0 0.54345,-0.597429 0.87675,-1.32762 z"
       style="fill:#000000;stroke:none"
       sodipodi:nodetypes="ssssssssscssssssscsssssssssssssscssscsss" />
  </g>
  <g
     inkscape:label="Symbol"
     inkscape:groupmode="layer"
     id="layer1"
     transform="translate(0,-1004.3622)"
     style="display:inline" />
  <g
     inkscape:groupmode="layer"
     id="layer4"
     inkscape:label="Inset"
     sodipodi:insensitive="true"
     style="display:inline">
    <path
       style="opacity:0.15;fill:#000000;fill-opacity:1;stroke:none"
       d="m 2,34 0,3 c 0,4.986 4.014,9 9,9 l 26,0 c 4.986,0 9,-4.014 9,-9 l 0,-3 c 0,4.986 -4.014,9 -9,9 L 11,43 C 6.014,43 2,38.986 2,34 z"
       id="rect3038-42"
       inkscape:connector-curvature="0" />
  </g>
  <g
     inkscape:groupmode="layer"
     id="layer7"
     inkscape:label="Baseshape"
     sodipodi:insensitive="true"
     style="display:none">
    <rect
       rx="9"
       ry="9"
       y="2"
       x="2"
       height="44"
       width="44"
       id="rect4169"
       style="fill:#abe1ad;fill-opacity:1;stroke:none;display:inline" />
  </g>
</svg>
