<?xml version="1.0" encoding="UTF-8" standalone="no"?>
<!-- Created with Inkscape (http://www.inkscape.org/) -->

<svg
   xmlns:dc="http://purl.org/dc/elements/1.1/"
   xmlns:cc="http://creativecommons.org/ns#"
   xmlns:rdf="http://www.w3.org/1999/02/22-rdf-syntax-ns#"
   xmlns:svg="http://www.w3.org/2000/svg"
   xmlns="http://www.w3.org/2000/svg"
   xmlns:xlink="http://www.w3.org/1999/xlink"
   xmlns:sodipodi="http://sodipodi.sourceforge.net/DTD/sodipodi-0.dtd"
   xmlns:inkscape="http://www.inkscape.org/namespaces/inkscape"
   width="48"
   height="48"
   id="svg2"
   version="1.1"
   inkscape:version="0.91 r13725"
   sodipodi:docname="application-text.svg">
  <defs
     id="defs4">
    <linearGradient
       inkscape:collect="always"
       id="linearGradient3810">
      <stop
         style="stop-color:#000000;stop-opacity:1;"
         offset="0"
         id="stop3812" />
      <stop
         style="stop-color:#000000;stop-opacity:0;"
         offset="1"
         id="stop3814" />
    </linearGradient>
    <linearGradient
       id="linearGradient3929">
      <stop
         style="stop-color:#313131;stop-opacity:1;"
         offset="0"
         id="stop3931" />
      <stop
         style="stop-color:#555555;stop-opacity:1;"
         offset="1"
         id="stop3933" />
    </linearGradient>
    <linearGradient
       id="linearGradient3757">
      <stop
         style="stop-color:#0f88de;stop-opacity:1;"
         offset="0"
         id="stop3759" />
      <stop
         style="stop-color:#81bffa;stop-opacity:1;"
         offset="1"
         id="stop3761" />
    </linearGradient>
    <linearGradient
       inkscape:collect="always"
       xlink:href="#linearGradient3929"
       id="linearGradient3935"
       x1="27"
       y1="47"
       x2="27"
       y2="2"
       gradientUnits="userSpaceOnUse" />
    <linearGradient
       inkscape:collect="always"
       xlink:href="#linearGradient3810"
       id="linearGradient3816"
       x1="39"
       y1="6"
       x2="30"
       y2="15"
       gradientUnits="userSpaceOnUse"
       gradientTransform="matrix(1.1052632,0,0,1,-2.5263158,1004.3622)" />
  </defs>
  <sodipodi:namedview
     id="base"
     pagecolor="#ffffff"
     bordercolor="#666666"
     borderopacity="1.0"
     inkscape:pageopacity="0.0"
     inkscape:pageshadow="2"
     inkscape:zoom="13.106648"
     inkscape:cx="9.9521518"
     inkscape:cy="19.084944"
     inkscape:document-units="px"
     inkscape:current-layer="layer1"
     showgrid="true"
     inkscape:window-width="1920"
     inkscape:window-height="1028"
     inkscape:window-x="0"
     inkscape:window-y="27"
     inkscape:window-maximized="1">
    <inkscape:grid
       type="xygrid"
       id="grid3765"
       empspacing="5"
       visible="true"
       enabled="true"
       snapvisiblegridlinesonly="true" />
  </sodipodi:namedview>
  <metadata
     id="metadata7">
    <rdf:RDF>
      <cc:Work
         rdf:about="">
        <dc:format>image/svg+xml</dc:format>
        <dc:type
           rdf:resource="http://purl.org/dc/dcmitype/StillImage" />
        <dc:title />
      </cc:Work>
    </rdf:RDF>
  </metadata>
  <g
     inkscape:label="Layer 1"
     inkscape:groupmode="layer"
     id="layer1"
     transform="translate(0,-1004.3622)">
    <path
       id="path3847"
       d="m 6.3157894,1007.3622 c -1.8369472,0 -3.3157894,1.338 -3.3157894,3 l 0,38 c 0,1.662 1.4788422,3 3.3157894,3 l 35.3684206,0 c 1.836948,0 3.31579,-1.338 3.31579,-3 l 0,-32 -9.947368,-9 -28.7368426,0 z m 3.3157886,4 c 1.220841,0 2.210528,0.8954 2.210528,2 0,1.1046 -0.989687,2 -2.210528,2 -1.220839,0 -2.2105254,-0.8954 -2.2105254,-2 0,-1.1046 0.9896864,-2 2.2105254,-2 z m 0,8 c 1.220841,0 2.210528,0.8954 2.210528,2 0,1.1046 -0.989687,2 -2.210528,2 -1.220839,0 -2.2105254,-0.8954 -2.2105254,-2 0,-1.1046 0.9896864,-2 2.2105254,-2 z m 0,8 c 1.220841,0 2.210528,0.8954 2.210528,2 0,1.1046 -0.989687,2 -2.210528,2 -1.220839,0 -2.2105254,-0.8954 -2.2105254,-2 0,-1.1046 0.9896864,-2 2.2105254,-2 z m 0,8 c 1.220841,0 2.210528,0.8954 2.210528,2 0,1.1046 -0.989687,2 -2.210528,2 -1.220839,0 -2.2105254,-0.8954 -2.2105254,-2 0,-1.1046 0.9896864,-2 2.2105254,-2 z m 0,8 c 1.220841,0 2.210528,0.8954 2.210528,2 0,1.1046 -0.989687,2 -2.210528,2 -1.220839,0 -2.2105254,-0.8954 -2.2105254,-2 0,-1.1046 0.9896864,-2 2.2105254,-2 z"
       style="opacity:0.15;fill:#000000;fill-opacity:1;stroke:none"
       inkscape:connector-curvature="0" />
    <path
       style="opacity:1;fill:#e0e2cc;fill-opacity:1;stroke:none"
       d="m 6.3157894,1006.3622 c -1.8369472,0 -3.3157894,1.338 -3.3157894,3 l 0,38 c 0,1.662 1.4788422,3 3.3157894,3 l 35.3684206,0 c 1.836948,0 3.31579,-1.338 3.31579,-3 l 0,-32 -9.947368,-9 -28.7368426,0 z m 3.3157886,4 c 1.220841,0 2.210528,0.8954 2.210528,2 0,1.1046 -0.989687,2 -2.210528,2 -1.220839,0 -2.2105254,-0.8954 -2.2105254,-2 0,-1.1046 0.9896864,-2 2.2105254,-2 z m 0,8 c 1.220841,0 2.210528,0.8954 2.210528,2 0,1.1046 -0.989687,2 -2.210528,2 -1.220839,0 -2.2105254,-0.8954 -2.2105254,-2 0,-1.1046 0.9896864,-2 2.2105254,-2 z m 0,8 c 1.220841,0 2.210528,0.8954 2.210528,2 0,1.1046 -0.989687,2 -2.210528,2 -1.220839,0 -2.2105254,-0.8954 -2.2105254,-2 0,-1.1046 0.9896864,-2 2.2105254,-2 z m 0,8 c 1.220841,0 2.210528,0.8954 2.210528,2 0,1.1046 -0.989687,2 -2.210528,2 -1.220839,0 -2.2105254,-0.8954 -2.2105254,-2 0,-1.1046 0.9896864,-2 2.2105254,-2 z m 0,8 c 1.220841,0 2.210528,0.8954 2.210528,2 0,1.1046 -0.989687,2 -2.210528,2 -1.220839,0 -2.2105254,-0.8954 -2.2105254,-2 0,-1.1046 0.9896864,-2 2.2105254,-2 z"
       id="rect3766"
       inkscape:connector-curvature="0" />
    <rect
       style="fill:#808080;fill-opacity:1;stroke:none"
       id="rect3818"
       width="22.105263"
       height="1"
       x="15.157894"
       y="1019.3622" />
    <path
       style="opacity:0.125;fill:url(#linearGradient3816);fill-opacity:1;stroke:none"
       d="m 35.052632,1006.3622 -9.947368,9 9.947368,9 9.947368,-9 z"
       id="path3808"
       inkscape:connector-curvature="0"
       sodipodi:nodetypes="ccccc" />
    <path
       style="fill:#eeeeee;fill-opacity:1;stroke:none"
       d="m 35.052632,1006.3622 0,6 c 0,2 1.105262,3 3.31579,3 l 6.631578,0 z"
       id="path3805"
       inkscape:connector-curvature="0"
       sodipodi:nodetypes="ccccc" />
    <path
       style="fill:#808080;fill-opacity:1;fill-rule:nonzero;stroke:none"
       inkscape:connector-curvature="0"
       id="path69"
       d="m 15.157894,1036.3622 14.368422,0 0,-1 -14.368422,0"
       sodipodi:nodetypes="cccc" />
    <path
       style="fill:#808080;fill-opacity:1;fill-rule:nonzero;stroke:none"
       inkscape:connector-curvature="0"
       id="path71"
       d="m 15.157894,1032.3622 18.789474,0 0,-1 -18.789474,0"
       sodipodi:nodetypes="cccc" />
    <path
       style="fill:#808080;fill-opacity:1;fill-rule:nonzero;stroke:none"
       inkscape:connector-curvature="0"
       id="path73"
       d="m 15.157894,1028.3622 12.157896,0 0,-1 -12.157896,0"
       sodipodi:nodetypes="cccc" />
    <path
       style="fill:#808080;fill-opacity:1;fill-rule:nonzero;stroke:none"
       inkscape:connector-curvature="0"
       id="path75"
       d="m 15.157894,1024.3622 16.578948,0 0,-1 -16.578948,0"
       sodipodi:nodetypes="cccc" />
    <path
       style="fill:#808080;fill-opacity:1;fill-rule:nonzero;stroke:none"
       inkscape:connector-curvature="0"
       id="path77"
       d="m 15.157894,1040.3622 19.894738,0 0,-1 -19.894738,0"
       sodipodi:nodetypes="cccc" />
    <path
       style="fill:#808080;fill-opacity:1;fill-rule:nonzero;stroke:none"
       inkscape:connector-curvature="0"
       id="path77-7"
       d="m 15.157894,1044.3622 16.578948,0 0,-1 -16.578948,0"
       sodipodi:nodetypes="cccc" />
  </g>
</svg>
